<svg width="117" height="38" viewBox="0 0 117 38" fill="none" xmlns="http://www.w3.org/2000/svg">
<path d="M93.1898 37.87C90.9798 37.86 88.7798 37.86 86.5698 37.85C86.1898 37.85 85.8098 37.86 85.4298 37.87C83.2498 37.87 81.0798 37.86 78.8998 37.86C72.4198 37.86 65.9298 37.86 59.4498 37.86C50.4198 37.86 41.3898 37.86 32.3598 37.86C24.0698 37.86 15.7798 37.85 7.48983 37.85C7.00983 37.85 6.52983 37.81 6.04983 37.79C5.13983 37.64 4.27982 37.35 3.47982 36.89C3.45982 36.89 3.43983 36.89 3.42983 36.89C3.35983 36.87 3.29983 36.83 3.23983 36.79C2.11983 36.01 1.42983 34.93 1.07983 33.62C0.779828 32.09 0.71983 30.54 0.79983 28.99C0.80983 28.89 0.809816 28.79 0.879816 28.72C0.879816 26.68 0.889826 24.64 0.889826 22.6C0.889826 17.45 0.869816 12.29 0.879816 7.14001C0.879816 5.61001 1.08983 4.11995 1.98983 2.81995C2.07983 2.68995 2.12984 2.52994 2.27984 2.43994C2.40984 2.21994 2.63983 2.09 2.76983 1.87C3.19983 1.56 3.56982 1.15004 4.12982 1.04004C5.60982 0.420039 7.17983 0.459961 8.73983 0.459961C19.1698 0.459961 29.6098 0.459961 40.0398 0.459961C52.2298 0.459961 64.4198 0.449951 76.6198 0.449951C85.1098 0.449951 93.5998 0.459961 102.09 0.459961C104.78 0.459961 107.48 0.449961 110.17 0.459961C111.1 0.459961 112 0.620024 112.89 0.900024C114.09 1.41002 115 2.24997 115.7 3.33997C115.94 3.58997 115.99 3.90997 116.08 4.21997C116.24 4.35997 116.15 4.56998 116.23 4.72998C116.62 6.83998 116.46 8.95996 116.47 11.08C116.48 16.59 116.47 22.09 116.46 27.6C116.46 28.77 116.5 29.94 116.45 31.1C116.4 32.2 116.36 33.3 115.93 34.34C115.32 35.79 114.28 36.79 112.83 37.38C112.75 37.41 112.68 37.45 112.6 37.49C112.38 37.44 112.24 37.68 112.03 37.65C111.74 37.75 111.44 37.8 111.13 37.78C105.66 37.93 100.19 37.81 94.7198 37.85C94.1998 37.86 93.6898 37.86 93.1898 37.87Z" fill="white"/>
<path d="M37.4295 11.2098H36.0095V12.1699H37.6795V12.7599H35.2695V9.16992H37.6695V9.7699H36.0095V10.6299H37.4295V11.2098Z" fill="#00213A"/>
<path d="M39.0698 9.16992L39.9898 11.7799L40.9099 9.16992H41.8798V12.7599H41.1398V11.7799L41.2098 10.0898L40.2398 12.7699H39.7298L38.7598 10.0999L38.8298 11.7899V12.7699H38.0898V9.17993H39.0698V9.16992Z" fill="#00213A"/>
<path d="M43.7891 12.7701V9.18018H45.0491C45.4891 9.18018 45.8191 9.26018 46.0391 9.43018C46.2691 9.60018 46.3791 9.84016 46.3791 10.1602C46.3791 10.3402 46.3391 10.4901 46.2391 10.6201C46.1491 10.7601 46.0191 10.8502 45.8591 10.9202C46.0391 10.9702 46.1891 11.0601 46.2991 11.2001C46.4091 11.3401 46.4591 11.5101 46.4591 11.7101C46.4591 12.0601 46.3491 12.3201 46.1291 12.4901C45.9091 12.6701 45.5991 12.7601 45.1891 12.7601H43.7891V12.7701ZM44.5291 10.6802H45.0791C45.4491 10.6702 45.6391 10.5201 45.6391 10.2301C45.6391 10.0701 45.5891 9.95013 45.4991 9.88013C45.4091 9.81013 45.2591 9.77014 45.0491 9.77014H44.5291V10.6802ZM44.5291 11.2001V12.1702H45.1591C45.3291 12.1702 45.4691 12.1302 45.5691 12.0502C45.6691 11.9702 45.7191 11.8501 45.7191 11.7101C45.7191 11.3801 45.5491 11.2101 45.2091 11.2101H44.5291V11.2001Z" fill="#00213A"/>
<path d="M48.3495 11.4501H47.7595V12.7701H47.0195V9.18018H48.3495C48.7795 9.18018 49.0995 9.27008 49.3295 9.46008C49.5595 9.65008 49.6795 9.92013 49.6795 10.2601C49.6795 10.5101 49.6295 10.7101 49.5195 10.8701C49.4095 11.0301 49.2495 11.1601 49.0395 11.2601L49.8195 12.7301V12.7601H49.0295L48.3495 11.4501ZM47.7595 10.8501H48.3595C48.5495 10.8501 48.6895 10.8001 48.7895 10.7101C48.8895 10.6201 48.9395 10.4901 48.9395 10.3201C48.9395 10.1501 48.8895 10.0202 48.7995 9.92017C48.6995 9.82017 48.5595 9.77014 48.3595 9.77014H47.7695V10.8501H47.7595Z" fill="#00213A"/>
<path d="M52.41 11.2098H50.99V12.1699H52.66V12.7599H50.25V9.16992H52.65V9.7699H50.99V10.6299H52.41V11.2098Z" fill="#00213A"/>
<path d="M54.4095 11.8801L55.2195 9.18018H56.0395L54.7895 12.7701H54.0195L52.7695 9.18018H53.5895L54.4095 11.8801Z" fill="#00213A"/>
<path d="M58.5497 11.2098H57.1296V12.1699H58.7997V12.7599H56.3896V9.16992H58.7896V9.7699H57.1296V10.6299H58.5497V11.2098Z" fill="#00213A"/>
<path d="M60.4893 12.7701V9.18018H61.5992C61.9192 9.18018 62.1992 9.25014 62.4492 9.39014C62.6992 9.53014 62.8893 9.73012 63.0293 10.0001C63.1693 10.2601 63.2393 10.5601 63.2393 10.8901V11.0602C63.2393 11.3902 63.1693 11.6901 63.0293 11.9501C62.8893 12.2101 62.6992 12.4102 62.4492 12.5502C62.1992 12.6902 61.9192 12.7701 61.5992 12.7701H60.4893ZM61.2292 9.77014V12.1702H61.5893C61.8793 12.1702 62.0993 12.0801 62.2493 11.8901C62.3993 11.7001 62.4792 11.4301 62.4792 11.0801V10.8901C62.4792 10.5201 62.3993 10.2502 62.2493 10.0602C62.0993 9.87018 61.8793 9.78015 61.5893 9.78015H61.2292V9.77014Z" fill="#00213A"/>
<path d="M64.5691 12.7701H63.8291V9.18018H64.5691V12.7701Z" fill="#00213A"/>
<path d="M67.1096 11.8198C67.1096 11.6798 67.0596 11.5699 66.9596 11.4999C66.8596 11.4299 66.6796 11.3499 66.4296 11.2599C66.1696 11.1799 65.9696 11.0899 65.8196 11.0099C65.4096 10.7899 65.2096 10.4899 65.2096 10.1199C65.2096 9.92987 65.2596 9.74985 65.3696 9.59985C65.4796 9.44985 65.6396 9.32987 65.8396 9.23987C66.0496 9.14987 66.2796 9.10986 66.5296 9.10986C66.7896 9.10986 67.0196 9.15988 67.2196 9.24988C67.4196 9.33988 67.5796 9.46989 67.6896 9.63989C67.7996 9.80989 67.8596 9.99985 67.8596 10.2198H67.1196C67.1196 10.0598 67.0696 9.92984 66.9596 9.83984C66.8596 9.74984 66.7096 9.69983 66.5196 9.69983C66.3396 9.69983 66.1996 9.73994 66.0996 9.80994C65.9996 9.88994 65.9496 9.98986 65.9496 10.1099C65.9496 10.2299 66.0096 10.3199 66.1296 10.3999C66.2496 10.4799 66.4196 10.5499 66.6496 10.6199C67.0696 10.7499 67.3796 10.8998 67.5696 11.0898C67.7596 11.2798 67.8596 11.5099 67.8596 11.7899C67.8596 12.0999 67.7396 12.3399 67.5096 12.5199C67.2696 12.6999 66.9596 12.7899 66.5596 12.7899C66.2796 12.7899 66.0296 12.7399 65.7996 12.6399C65.5696 12.5399 65.3996 12.3998 65.2796 12.2198C65.1596 12.0398 65.0996 11.8399 65.0996 11.6099H65.8396C65.8396 12.0099 66.0797 12.1998 66.5497 12.1998C66.7297 12.1998 66.8596 12.1598 66.9596 12.0898C67.0696 12.0498 67.1096 11.9498 67.1096 11.8198Z" fill="#00213A"/>
<path d="M69.0994 11.5001V12.7701H68.3594V9.18018H69.7593C70.0293 9.18018 70.2694 9.23008 70.4694 9.33008C70.6694 9.43008 70.8293 9.57012 70.9393 9.75012C71.0493 9.93012 71.1094 10.1401 71.1094 10.3701C71.1094 10.7201 70.9893 11.0001 70.7493 11.2001C70.5093 11.4001 70.1793 11.5001 69.7493 11.5001H69.0994ZM69.0994 10.9001H69.7593C69.9593 10.9001 70.1094 10.8501 70.2094 10.7601C70.3094 10.6701 70.3594 10.5401 70.3594 10.3601C70.3594 10.1801 70.3093 10.0402 70.1993 9.93018C70.0993 9.82018 69.9493 9.77013 69.7693 9.76013H69.0894V10.9001H69.0994Z" fill="#00213A"/>
<path d="M74.5698 11.0499C74.5698 11.3999 74.5098 11.7099 74.3798 11.9799C74.2498 12.2499 74.0798 12.4499 73.8398 12.5999C73.6098 12.7499 73.3398 12.8198 73.0398 12.8198C72.7398 12.8198 72.4797 12.7499 72.2397 12.6099C72.0097 12.4699 71.8198 12.2599 71.6998 11.9999C71.5698 11.7299 71.5098 11.4298 71.5098 11.0798V10.8999C71.5098 10.5499 71.5698 10.2298 71.6998 9.96985C71.8298 9.69985 72.0097 9.48985 72.2397 9.34985C72.4697 9.20985 72.7398 9.12988 73.0398 9.12988C73.3398 9.12988 73.6098 9.19985 73.8398 9.34985C74.0698 9.49985 74.2498 9.69985 74.3798 9.96985C74.5098 10.2398 74.5698 10.5499 74.5698 10.8999V11.0499ZM73.8198 10.8899C73.8198 10.5099 73.7498 10.2299 73.6198 10.0299C73.4898 9.82991 73.2898 9.73987 73.0398 9.73987C72.7898 9.73987 72.5998 9.83991 72.4698 10.0299C72.3298 10.2199 72.2698 10.5099 72.2598 10.8799V11.0599C72.2598 11.4299 72.3298 11.7099 72.4598 11.9099C72.5898 12.1099 72.7898 12.2098 73.0398 12.2098C73.2898 12.2098 73.4798 12.1099 73.6098 11.9199C73.7398 11.7299 73.8098 11.4398 73.8098 11.0698V10.8899H73.8198Z" fill="#00213A"/>
<path d="M78.0294 12.7701H77.2894L75.8494 10.4102V12.7701H75.1094V9.18018H75.8494L77.2894 11.5502V9.18018H78.0294V12.7701Z" fill="#00213A"/>
<path d="M79.4597 12.77H78.7197V9.18005H79.4597V12.77ZM79.2397 8.19995H80.0197L79.3397 8.96997H78.7597L79.2397 8.19995Z" fill="#00213A"/>
<path d="M81.4799 11.8801L82.2899 9.18018H83.1099L81.8599 12.7701H81.0898L79.8398 9.18018H80.6599L81.4799 11.8801Z" fill="#00213A"/>
<path d="M85.6199 11.2098H84.2V12.1699H85.8699V12.7599H83.46V9.16992H85.86V9.7699H84.2V10.6299H85.6199V11.2098Z" fill="#00213A"/>
<path d="M87.0398 12.1699H88.6098V12.7599H86.2998V9.16992H87.0398V12.1699Z" fill="#00213A"/>
<path d="M93.2198 12.7701H92.4798L91.0398 10.4102V12.7701H90.2998V9.18018H91.0398L92.4798 11.5502V9.18018H93.2198V12.7701Z" fill="#00213A"/>
<path d="M95.9396 12.0302H94.6396L94.3896 12.7701H93.5996L94.9396 9.18018H95.6296L96.9796 12.7701H96.1896L95.9396 12.0302ZM94.8396 11.4302H95.7396L95.2896 10.0901L94.8396 11.4302Z" fill="#00213A"/>
<path d="M9.80957 19.3699C9.81957 18.0199 10.1896 16.4699 11.2896 15.1399C12.6396 13.4999 14.8595 12.89 16.8195 13.67C18.8395 14.47 18.5596 14.38 20.3896 13.67C22.0296 13.03 23.6096 13.1199 25.1496 13.9799C25.6496 14.2599 26.0596 14.6499 26.4196 15.0899C26.6096 15.3199 26.5596 15.4399 26.3396 15.6099C25.2396 16.4299 24.5095 17.4999 24.3795 18.8899C24.1895 20.8499 24.9495 22.36 26.5995 23.42C27.2095 23.81 27.2196 23.7999 26.9596 24.4499C26.3696 25.9499 25.4996 27.2899 24.3996 28.4699C23.5296 29.3999 22.4596 29.6199 21.2596 29.1899C20.7896 29.0199 20.3396 28.77 19.8396 28.66C18.9696 28.47 18.1296 28.5499 17.3096 28.8799C16.7896 29.0899 16.2696 29.33 15.6996 29.4C14.8396 29.51 14.1495 29.1699 13.5695 28.5999C11.8995 26.9199 10.8196 24.8999 10.2196 22.6299C9.94957 21.6699 9.80957 20.6999 9.80957 19.3699Z" fill="#00213A"/>
<path d="M22.7403 8.71981C22.6903 10.6398 21.2703 12.5298 19.4403 12.9498C18.2803 13.2198 18.3303 13.1298 18.4703 12.0998C18.7203 10.2298 20.2403 8.62979 22.1203 8.19979C22.7303 8.05979 22.7603 8.07981 22.7403 8.71981Z" fill="#00213A"/>
<path d="M76.6894 20.62C76.6794 20.62 76.6694 20.62 76.6494 20.62C76.0894 20.69 75.6994 20.6001 75.5194 19.9201C75.3494 19.2801 74.7494 18.9601 74.1094 18.8001C73.1494 18.5601 72.2294 18.6001 71.3894 19.1801C70.4394 19.8401 70.4794 21.0801 71.4694 21.6701C72.2094 22.1101 73.0594 22.23 73.8794 22.44C74.6494 22.64 75.4294 22.81 76.1394 23.2C77.9294 24.17 78.3594 26.57 77.0194 28.12C76.2094 29.05 75.1394 29.4301 73.9594 29.5601C72.5094 29.7101 71.0994 29.58 69.8694 28.71C69.0494 28.13 68.5694 27.3201 68.4494 26.3101C68.4294 26.1001 68.4594 25.99 68.7094 25.99C69.1594 26 69.6194 25.99 70.0794 25.99C70.1994 25.99 70.2994 26.01 70.3294 26.15C70.6194 27.33 71.5094 27.79 72.5894 27.95C73.3994 28.07 74.2094 28.0101 74.9394 27.5601C75.4894 27.2201 75.8494 26.76 75.8294 26.09C75.8094 25.41 75.4094 24.99 74.8294 24.7C73.9794 24.27 73.0494 24.1601 72.1494 23.9201C71.5394 23.7601 70.9494 23.5701 70.3794 23.2901C68.1994 22.2101 68.3194 19.39 69.8894 18.09C71.5294 16.74 74.5994 16.7 76.2794 18.01C77.0594 18.62 77.4694 19.43 77.5694 20.4C77.5894 20.58 77.5194 20.62 77.3694 20.61C77.1394 20.61 76.8994 20.61 76.6694 20.61C76.6894 20.61 76.6894 20.62 76.6894 20.62Z" fill="#00213A"/>
<path d="M79.8494 24.7099C79.8494 23.9899 79.8394 23.1799 79.8494 22.3699C79.8494 22.1099 79.7993 21.9999 79.5093 21.9999C78.5693 21.9999 78.5693 21.99 78.5693 21.06C78.5693 20.54 78.5693 20.54 79.0793 20.54C79.8493 20.54 79.8494 20.54 79.8594 19.77C79.8594 19.44 79.8694 19.11 79.8594 18.77C79.8494 18.55 79.9094 18.4299 80.1694 18.4399C80.5894 18.4599 81.0094 18.4599 81.4194 18.4399C81.6594 18.4299 81.7094 18.5299 81.7094 18.7399C81.6994 19.2099 81.7294 19.67 81.7094 20.14C81.6994 20.43 81.7694 20.56 82.0994 20.54C82.4494 20.51 82.8094 20.55 83.1694 20.54C83.3494 20.54 83.4094 20.61 83.4094 20.78C83.4094 21.1 83.4094 21.4199 83.4094 21.7399C83.4094 21.9199 83.3393 21.9999 83.1393 21.9899C82.7693 21.9699 82.3994 21.9899 82.0294 21.9799C81.8194 21.9799 81.7094 22.03 81.7194 22.27C81.7294 23.84 81.7194 25.4199 81.7294 26.9899C81.7294 27.5799 82.0393 27.8899 82.6393 27.9399C82.7893 27.9499 82.9393 27.9599 83.0793 27.9399C83.3193 27.8999 83.4194 27.9799 83.4094 28.2299C83.3994 28.5399 83.3894 28.84 83.3994 29.15C83.3994 29.33 83.3194 29.4 83.1594 29.41C82.5094 29.45 81.8594 29.4999 81.2194 29.3199C80.3994 29.0799 79.9793 28.53 79.8893 27.66C79.7993 26.72 79.8894 25.7599 79.8494 24.7099Z" fill="#00213A"/>
<path d="M96.1098 21.83C96.5498 20.86 97.3098 20.43 98.3398 20.46C98.6598 20.47 98.8798 20.5399 98.8298 20.9399C98.7898 21.2599 98.8098 21.58 98.8198 21.9C98.8298 22.15 98.7598 22.2299 98.4798 22.1899C97.7398 22.0799 97.0498 22.17 96.5398 22.8C96.2298 23.18 96.1198 23.62 96.1198 24.1C96.1198 25.71 96.1198 27.3201 96.1098 28.9301C96.1098 29.4101 96.1098 29.42 95.6398 29.42C95.2798 29.42 94.9298 29.41 94.5698 29.42C94.3598 29.43 94.2598 29.37 94.2598 29.13C94.2698 26.38 94.2698 23.62 94.2698 20.87C94.2698 20.68 94.3098 20.57 94.5298 20.58C94.9398 20.59 95.3398 20.59 95.7498 20.58C95.9398 20.58 96.0098 20.65 96.0098 20.84C95.9998 21.17 96.0098 21.4999 96.0098 21.8199C96.0498 21.8099 96.0798 21.82 96.1098 21.83Z" fill="#00213A"/>
<path d="M40.5498 18.2201C40.1998 17.2601 40.2098 17.2601 39.1898 17.2601C38.9698 17.2601 38.7498 17.2801 38.5298 17.2601C38.2398 17.2301 38.1098 17.3401 38.0098 17.6301C37.2398 19.8101 36.4498 21.9701 35.6598 24.1401C35.0698 25.7801 34.4898 27.4202 33.8798 29.0602C33.7598 29.3802 33.8598 29.4402 34.1498 29.4302C34.5798 29.4202 35.0098 29.4202 35.4398 29.4302C35.6498 29.4302 35.7598 29.3702 35.8298 29.1502C36.1198 28.2502 36.4498 27.3601 36.7398 26.4601C36.8198 26.2201 36.9298 26.1401 37.1898 26.1401C38.5098 26.1501 39.8198 26.1501 41.1398 26.1401C41.3798 26.1401 41.4898 26.2101 41.5598 26.4401C41.8498 27.3301 42.1698 28.2101 42.4498 29.0901C42.5298 29.3501 42.6598 29.4402 42.9198 29.4202C43.2398 29.4002 43.5598 29.4202 43.8798 29.4102C44.6698 29.3902 44.6298 29.5001 44.3498 28.7401C43.0998 25.2301 41.8198 21.7301 40.5498 18.2201ZM40.6198 24.6001C39.6398 24.5901 38.6498 24.5901 37.6698 24.5901C37.4998 24.5901 37.3498 24.6101 37.4398 24.3401C37.9998 22.7201 38.5498 21.0901 39.1098 19.4601C39.1198 19.4401 39.1498 19.4301 39.1998 19.3901C39.4198 20.0401 39.6398 20.6702 39.8598 21.3002C40.1998 22.2902 40.5198 23.2801 40.8698 24.2601C40.9498 24.5301 40.8998 24.6101 40.6198 24.6001Z" fill="#00213A"/>
<path d="M58.1701 21.0201C57.8501 21.2401 57.6001 21.5302 57.2701 21.9102C57.2701 21.4802 57.2601 21.1701 57.2701 20.8501C57.2801 20.6401 57.2001 20.5402 56.9701 20.5502C56.6001 20.5602 56.2301 20.5702 55.8601 20.5502C55.5401 20.5302 55.4301 20.6301 55.4401 20.9601C55.4601 22.2901 55.4501 23.6201 55.4501 24.9401C55.4501 27.2901 55.4601 29.6401 55.4501 31.9801C55.4501 32.2501 55.5201 32.3501 55.8001 32.3401C56.2001 32.3201 56.6101 32.3201 57.0201 32.3401C57.2401 32.3501 57.33 32.2802 57.32 32.0502C57.31 31.4202 57.32 30.8002 57.32 30.1702C57.32 29.5002 57.32 28.8301 57.32 28.1001C57.41 28.1701 57.4501 28.1901 57.4601 28.2101C58.5601 29.9701 62.0201 30.1201 63.2401 27.6301C64.1001 25.8701 64.1101 24.0602 63.2301 22.3102C62.1901 20.2302 59.6701 20.0201 58.1701 21.0201ZM61.6 26.6702C61.19 27.4702 60.5501 27.9202 59.6401 27.9202C58.7301 27.9202 58.0801 27.4901 57.7001 26.6901C57.1701 25.5801 57.1701 24.4302 57.6701 23.3102C58.0501 22.4602 58.7401 22.0001 59.6801 22.0101C60.6701 22.0301 61.3201 22.5801 61.6901 23.4801C61.9001 23.9601 61.9401 24.4802 61.9501 24.9302C61.9401 25.5802 61.87 26.1502 61.6 26.6702Z" fill="#00213A"/>
<path d="M51.0997 20.5302C49.7097 20.2602 48.5197 20.6402 47.6197 21.7802C47.5997 21.8002 47.5697 21.8202 47.4797 21.8802C47.4797 21.5302 47.4697 21.2302 47.4797 20.9302C47.4997 20.6602 47.4297 20.5202 47.1197 20.5502C46.7797 20.5802 46.4297 20.5802 46.0897 20.5502C45.7397 20.5202 45.6897 20.6601 45.6897 20.9701C45.6997 23.2401 45.6897 25.5202 45.6897 27.7902C45.6897 29.1902 45.6997 30.5901 45.6797 31.9901C45.6797 32.2701 45.7597 32.3501 46.0397 32.3401C46.4297 32.3201 46.8297 32.3201 47.2197 32.3401C47.4897 32.3601 47.5497 32.2501 47.5497 32.0001C47.5397 31.1301 47.5497 30.2502 47.5497 29.3802C47.5497 28.9702 47.5497 28.5602 47.5497 28.0502C47.8997 28.4502 48.1597 28.7802 48.5297 29.0102C50.3197 30.1202 52.6797 29.4201 53.5697 27.4601C54.2297 26.0001 54.2497 24.4701 53.7497 22.9601C53.3397 21.6701 52.4697 20.7902 51.0997 20.5302ZM52.1997 24.8201C52.1797 25.8401 52.0197 26.6302 51.4197 27.2702C50.4297 28.3102 48.7297 28.1401 48.0297 26.8701C47.3697 25.6801 47.3597 24.4201 47.9697 23.2001C48.3897 22.3601 49.2397 21.9302 50.0897 22.0402C51.0897 22.1702 51.8097 22.8502 52.0597 23.9102C52.1497 24.2602 52.2197 24.6201 52.1997 24.8201Z" fill="#00213A"/>
<path d="M101.43 25.4601C102.35 25.4701 103.28 25.4701 104.2 25.4701C105.12 25.4701 106.05 25.4602 106.97 25.4802C107.22 25.4802 107.33 25.4302 107.31 25.1602C107.29 24.9002 107.31 24.6402 107.3 24.3902C107.26 22.3002 105.97 20.8002 103.93 20.5002C101.93 20.2002 100.15 21.2302 99.5002 23.1202C99.0302 24.4902 99.0602 25.8702 99.6102 27.2302C99.9402 28.0502 100.49 28.6901 101.28 29.0701C102.67 29.7401 104.09 29.7301 105.48 29.0801C106.28 28.7101 106.85 28.0902 107.12 27.2302C107.21 26.9502 107.19 26.7902 106.83 26.8102C106.47 26.8302 106.12 26.8202 105.76 26.8102C105.59 26.8102 105.47 26.8602 105.38 27.0202C104.86 27.9002 103.81 28.2501 102.71 27.9501C101.74 27.6801 101.1 26.8301 101.08 25.8301C101.07 25.5301 101.16 25.4501 101.43 25.4601ZM101.1 23.8602C101.35 22.4102 102.71 21.6001 104.11 22.0701C104.86 22.3301 105.46 23.1801 105.47 23.9601C105.47 24.1901 105.32 24.1402 105.2 24.1402C104.56 24.1402 103.92 24.1402 103.29 24.1402C102.65 24.1402 102.01 24.1402 101.38 24.1402C101.16 24.1502 101.05 24.1102 101.1 23.8602Z" fill="#00213A"/>
<path d="M87.9393 20.4801C86.4893 20.6401 85.4194 21.3901 84.7994 22.7201C84.4694 23.4201 84.3493 24.1702 84.3693 24.7902C84.3193 27.5102 85.6593 29.2001 88.0193 29.4801C89.4293 29.6501 90.7193 29.3401 91.7093 28.2401C92.4093 27.4601 92.7093 26.5001 92.7793 25.4801C92.8593 24.3301 92.7193 23.2101 92.0793 22.2301C91.0993 20.7301 89.6293 20.3001 87.9393 20.4801ZM90.5893 26.6901C90.1993 27.6001 89.4694 28.0201 88.4794 27.9801C87.5394 27.9401 86.9093 27.4902 86.5393 26.6402C86.3093 26.1102 86.2393 25.5501 86.2493 24.9801C86.2393 24.3701 86.3193 23.7801 86.5793 23.2201C86.9993 22.3401 87.7193 21.9201 88.6793 21.9501C89.6093 21.9801 90.2694 22.4502 90.6094 23.3102C91.0494 24.4402 91.0593 25.5801 90.5893 26.6901Z" fill="#00213A"/>
</svg>
