<svg width="54" height="18" viewBox="0 0 54 18" fill="none" xmlns="http://www.w3.org/2000/svg">
<path d="M34.5696 0.169922L30.3896 17.4199V17.4299H30.9296L35.1096 0.169922H34.5696Z" fill="#FEA90E"/>
<path d="M31.47 0.169922L27.29 17.4199V17.4299H27.83L32.02 0.169922H31.47Z" fill="#FEA90E"/>
<path d="M28.4798 0.169922L24.2998 17.4199V17.4299H24.8398L29.0298 0.169922H28.4798Z" fill="#FEA90E"/>
<path d="M25.4302 0.169922L21.2402 17.4199V17.4299H21.7802L25.9702 0.169922H25.4302Z" fill="#FEA90E"/>
<path d="M22.3804 0.169922L18.1904 17.4199V17.4299H18.7404L22.9204 0.169922H22.3804Z" fill="#FEA90E"/>
<path d="M19.3196 0.169922L15.1396 17.4199V17.4299H15.6796L19.8596 0.169922H19.3196Z" fill="#FEA90E"/>
<path d="M16.3004 0.169922L12.1104 17.4199V17.4299H12.6504L16.8404 0.169922H16.3004Z" fill="#FEA90E"/>
<path d="M13.23 0.169922L9.04004 17.4199V17.4299H9.59004L13.77 0.169922H13.23Z" fill="#FEA90E"/>
<path d="M10.1898 0.169922L6.00977 17.4199V17.4299H6.54977L10.7298 0.169922H10.1898Z" fill="#FEA90E"/>
<path d="M7.12043 0.169922L2.94043 17.4199V17.4299H3.48043L7.66043 0.169922H7.12043Z" fill="#FEA90E"/>
<path d="M4.18 0.169922L0 17.4199V17.4299H0.54L4.73 0.169922H4.18Z" fill="#FEA90E"/>
<path d="M40.6802 0.169922L36.4902 17.4199V17.4299H37.0302L41.2202 0.169922H40.6802Z" fill="#FEA90E"/>
<path d="M37.65 0.169922L33.46 17.4199V17.4299H34L38.19 0.169922H37.65Z" fill="#FEA90E"/>
<path d="M43.7095 0.169922L39.5195 17.4199V17.4299H40.0595L44.2495 0.169922H43.7095Z" fill="#FEA90E"/>
<path d="M46.7701 0.169922L42.5801 17.4199V17.4299H43.1301L47.3101 0.169922H46.7701Z" fill="#FEA90E"/>
<path d="M49.7798 0.169922L45.5898 17.4199V17.4299H46.1298L50.3198 0.169922H49.7798Z" fill="#FEA90E"/>
<path d="M52.8099 0.169922L48.6299 17.4199V17.4299H49.1699L53.3599 0.169922H52.8099Z" fill="#FEA90E"/>
</svg>
