<svg width="217" height="28" viewBox="0 0 217 28" fill="none" xmlns="http://www.w3.org/2000/svg">
<path d="M5.25977 0.109863L0.00976562 27.3199H211.28L216.53 0.109863H5.25977Z" fill="#FEA90E"/>
<path d="M24.6875 14.5137L26.6426 14.4863C26.556 15.2201 26.3076 15.849 25.8975 16.373C25.4919 16.8926 24.9814 17.2891 24.3662 17.5625C23.751 17.8314 23.0833 17.959 22.3633 17.9453C21.6979 17.9316 21.1374 17.7904 20.6816 17.5215C20.2259 17.248 19.8682 16.8835 19.6084 16.4277C19.3486 15.972 19.1777 15.4639 19.0957 14.9033C19.0137 14.3428 19.0091 13.7686 19.082 13.1807L19.1777 12.4902C19.2689 11.8704 19.4352 11.2712 19.6768 10.6924C19.9229 10.1136 20.2441 9.59863 20.6406 9.14746C21.0371 8.69629 21.5065 8.34082 22.0488 8.08105C22.5911 7.82129 23.2064 7.69824 23.8945 7.71191C24.6146 7.72559 25.223 7.88053 25.7197 8.17676C26.221 8.46842 26.6061 8.8763 26.875 9.40039C27.1484 9.91992 27.3011 10.5283 27.333 11.2256L25.3438 11.2188C25.3483 10.8496 25.3027 10.526 25.207 10.248C25.1159 9.96549 24.9564 9.74674 24.7285 9.5918C24.5007 9.43229 24.1862 9.3457 23.7852 9.33203C23.3477 9.31836 22.9762 9.40495 22.6709 9.5918C22.3656 9.77865 22.1126 10.0293 21.9121 10.3438C21.7161 10.6582 21.5612 11.0023 21.4473 11.376C21.3379 11.7497 21.2559 12.1165 21.2012 12.4766L21.1055 13.1875C21.069 13.4837 21.0439 13.8118 21.0303 14.1719C21.0166 14.5273 21.0462 14.8669 21.1191 15.1904C21.1921 15.514 21.3333 15.7829 21.543 15.9971C21.7526 16.2067 22.0648 16.3184 22.4795 16.332C22.8896 16.3457 23.2428 16.2819 23.5391 16.1406C23.8398 15.9993 24.0837 15.7897 24.2705 15.5117C24.4619 15.2337 24.6009 14.901 24.6875 14.5137ZM27.6611 14.2266L27.6816 14.083C27.7363 13.5589 27.8617 13.0667 28.0576 12.6064C28.2581 12.1416 28.5225 11.7337 28.8506 11.3828C29.1833 11.0273 29.5729 10.7516 30.0195 10.5557C30.4707 10.3551 30.9766 10.2617 31.5371 10.2754C32.0703 10.2845 32.5306 10.3916 32.918 10.5967C33.3053 10.8018 33.6221 11.0775 33.8682 11.4238C34.1188 11.7702 34.2943 12.1667 34.3945 12.6133C34.4993 13.0599 34.529 13.5316 34.4834 14.0283L34.4697 14.1787C34.4105 14.6982 34.2783 15.1882 34.0732 15.6484C33.8727 16.1042 33.6061 16.5075 33.2734 16.8584C32.9453 17.2048 32.5557 17.4759 32.1045 17.6719C31.6533 17.8678 31.152 17.959 30.6006 17.9453C30.0765 17.9362 29.6185 17.8314 29.2266 17.6309C28.8346 17.4258 28.5156 17.1523 28.2695 16.8105C28.0234 16.4642 27.8503 16.07 27.75 15.6279C27.6497 15.1859 27.6201 14.7188 27.6611 14.2266ZM29.6025 14.083L29.5889 14.2334C29.5661 14.4521 29.5592 14.6868 29.5684 14.9375C29.5775 15.1836 29.6162 15.4183 29.6846 15.6416C29.7575 15.8649 29.876 16.0472 30.04 16.1885C30.2041 16.3298 30.4297 16.4049 30.7168 16.4141C31.0221 16.4232 31.2842 16.3617 31.5029 16.2295C31.7217 16.0973 31.9017 15.9196 32.043 15.6963C32.1842 15.4684 32.2959 15.2223 32.3779 14.958C32.46 14.6891 32.5146 14.4271 32.542 14.1719L32.5557 14.0283C32.5739 13.8096 32.5785 13.5749 32.5693 13.3242C32.5648 13.069 32.526 12.8298 32.4531 12.6064C32.3802 12.3786 32.2617 12.1917 32.0977 12.0459C31.9336 11.9001 31.708 11.8226 31.4209 11.8135C31.1156 11.7998 30.8535 11.8636 30.6348 12.0049C30.416 12.1416 30.236 12.3239 30.0947 12.5518C29.9535 12.7796 29.8418 13.028 29.7598 13.2969C29.6823 13.5658 29.6299 13.8278 29.6025 14.083ZM37.8672 12.1006L36.876 17.8086H34.9482L36.2334 10.4121H38.0381L37.8672 12.1006ZM37.2998 13.8506L36.8213 13.8643C36.8714 13.4222 36.9717 12.9847 37.1221 12.5518C37.2725 12.1188 37.4775 11.7292 37.7373 11.3828C38.0016 11.0319 38.3229 10.7562 38.7012 10.5557C39.084 10.3551 39.5283 10.2594 40.0342 10.2686C40.4443 10.2822 40.7816 10.3688 41.0459 10.5283C41.3148 10.6833 41.5199 10.8929 41.6611 11.1572C41.807 11.4215 41.9004 11.7201 41.9414 12.0527C41.987 12.3854 41.9915 12.7318 41.9551 13.0918L41.1621 17.8086H39.2275L40.0273 13.0713C40.0547 12.8298 40.0479 12.6156 40.0068 12.4287C39.9658 12.2419 39.8747 12.0938 39.7334 11.9844C39.5967 11.875 39.3962 11.818 39.1318 11.8135C38.8402 11.8044 38.5872 11.859 38.373 11.9775C38.1634 12.096 37.9857 12.2555 37.8398 12.4561C37.694 12.6566 37.5778 12.8776 37.4912 13.1191C37.4046 13.3607 37.3408 13.6045 37.2998 13.8506ZM46.3096 7.30859L44.4844 17.8086H42.5635L44.3887 7.30859H46.3096ZM44.915 13.8506L44.416 13.8574C44.4661 13.4382 44.5641 13.0143 44.71 12.5859C44.8604 12.1576 45.0632 11.7679 45.3184 11.417C45.5736 11.0615 45.8857 10.779 46.2549 10.5693C46.6286 10.3551 47.0615 10.2549 47.5537 10.2686C47.9684 10.2777 48.3125 10.362 48.5859 10.5215C48.8639 10.6764 49.0804 10.8883 49.2354 11.1572C49.3903 11.4215 49.4928 11.7246 49.543 12.0664C49.5931 12.4036 49.5977 12.7591 49.5566 13.1328L48.7773 17.8086H46.8428L47.6357 13.1123C47.6631 12.8708 47.6562 12.6543 47.6152 12.4629C47.5788 12.2669 47.4899 12.112 47.3486 11.998C47.2119 11.8796 47.0091 11.818 46.7402 11.8135C46.444 11.8044 46.1888 11.8568 45.9746 11.9707C45.765 12.0846 45.5872 12.2419 45.4414 12.4424C45.2956 12.6383 45.1816 12.8594 45.0996 13.1055C45.0176 13.347 44.9561 13.5954 44.915 13.8506ZM53.6855 17.9453C53.1797 17.9362 52.724 17.8405 52.3184 17.6582C51.9128 17.4714 51.5732 17.2161 51.2998 16.8926C51.0309 16.569 50.8327 16.193 50.7051 15.7646C50.5775 15.3363 50.5319 14.876 50.5684 14.3838L50.5957 14.1035C50.6504 13.5885 50.7757 13.0986 50.9717 12.6338C51.1676 12.1689 51.4297 11.7588 51.7578 11.4033C52.0859 11.0433 52.4733 10.763 52.9199 10.5625C53.3711 10.3574 53.8724 10.2617 54.4238 10.2754C54.9388 10.2845 55.3786 10.3893 55.7432 10.5898C56.1077 10.7904 56.4017 11.0592 56.625 11.3965C56.8483 11.7337 57.001 12.1188 57.083 12.5518C57.165 12.9801 57.181 13.429 57.1309 13.8984L57.0215 14.7188H51.3066L51.5186 13.4062L55.292 13.4131L55.3262 13.2422C55.3626 12.9915 55.3512 12.7591 55.292 12.5449C55.2327 12.3262 55.1211 12.1507 54.957 12.0186C54.793 11.8864 54.5742 11.8158 54.3008 11.8066C53.9863 11.7975 53.722 11.8636 53.5078 12.0049C53.2936 12.1462 53.1182 12.333 52.9814 12.5654C52.8447 12.7979 52.7399 13.0508 52.667 13.3242C52.5941 13.5931 52.5417 13.8529 52.5098 14.1035L52.4824 14.377C52.4596 14.6185 52.4665 14.86 52.5029 15.1016C52.5394 15.3385 52.61 15.5527 52.7148 15.7441C52.8242 15.9355 52.9723 16.0905 53.1592 16.209C53.3506 16.3275 53.5898 16.3913 53.877 16.4004C54.2415 16.4095 54.5765 16.3389 54.8818 16.1885C55.1917 16.0335 55.4697 15.8285 55.7158 15.5732L56.5771 16.6123C56.3721 16.9222 56.11 17.1774 55.791 17.3779C55.4766 17.5739 55.137 17.7174 54.7725 17.8086C54.4079 17.9043 54.0456 17.9499 53.6855 17.9453ZM60.7949 16.4141C61.0365 16.4186 61.2507 16.373 61.4375 16.2773C61.6289 16.1816 61.7861 16.0472 61.9092 15.874C62.0322 15.7008 62.1143 15.5003 62.1553 15.2725L63.9668 15.2656C63.9258 15.8171 63.748 16.2956 63.4336 16.7012C63.1237 17.1068 62.7295 17.4189 62.251 17.6377C61.777 17.8564 61.2734 17.959 60.7402 17.9453C60.207 17.9362 59.749 17.8291 59.3662 17.624C58.988 17.4189 58.6826 17.1455 58.4502 16.8037C58.2178 16.4574 58.0537 16.0632 57.958 15.6211C57.8669 15.179 57.8441 14.7142 57.8896 14.2266L57.9102 14.0215C57.9648 13.5111 58.0879 13.028 58.2793 12.5723C58.4707 12.112 58.7259 11.7087 59.0449 11.3623C59.3685 11.0114 59.749 10.7402 60.1865 10.5488C60.624 10.3529 61.1185 10.2617 61.6699 10.2754C62.2396 10.2845 62.7272 10.4144 63.1328 10.665C63.5384 10.9111 63.846 11.2484 64.0557 11.6768C64.2699 12.1051 64.3724 12.5973 64.3633 13.1533L62.5586 13.1465C62.5632 12.9232 62.5335 12.7113 62.4697 12.5107C62.4059 12.3057 62.2965 12.1416 62.1416 12.0186C61.9912 11.891 61.7861 11.8203 61.5264 11.8066C61.221 11.7975 60.9658 11.8613 60.7607 11.998C60.5557 12.1302 60.3893 12.3102 60.2617 12.5381C60.1341 12.7614 60.0361 13.0052 59.9678 13.2695C59.8994 13.5293 59.8516 13.7822 59.8242 14.0283L59.8105 14.2266C59.7878 14.4316 59.7741 14.6595 59.7695 14.9102C59.765 15.1562 59.79 15.3932 59.8447 15.6211C59.8994 15.8444 59.9997 16.0312 60.1455 16.1816C60.2959 16.3275 60.5124 16.4049 60.7949 16.4141ZM59.8242 17.7881L61.2529 17.7744L61.1162 18.2051C61.3988 18.2689 61.613 18.3988 61.7588 18.5947C61.9046 18.7907 61.9753 19.0322 61.9707 19.3193C61.9661 19.6566 61.8818 19.9323 61.7178 20.1465C61.5583 20.3652 61.3486 20.5339 61.0889 20.6523C60.8291 20.7708 60.5511 20.8551 60.2549 20.9053C59.9587 20.9554 59.6761 20.9827 59.4072 20.9873L59.4688 19.8799C59.6009 19.8662 59.7285 19.8389 59.8516 19.7979C59.9792 19.7614 60.0885 19.6976 60.1797 19.6064C60.2708 19.5199 60.3278 19.4014 60.3506 19.251C60.3779 19.096 60.3438 18.9844 60.248 18.916C60.1523 18.8522 60.0339 18.8112 59.8926 18.793C59.7513 18.7793 59.6283 18.7656 59.5234 18.752L59.8242 17.7881ZM68.8203 16.1406L69.3398 12.8252C69.3626 12.6247 69.3535 12.4378 69.3125 12.2646C69.2715 12.0915 69.1872 11.9548 69.0596 11.8545C68.9365 11.7497 68.7611 11.6927 68.5332 11.6836C68.3281 11.679 68.1436 11.7155 67.9795 11.793C67.82 11.8659 67.6878 11.973 67.583 12.1143C67.4782 12.251 67.4053 12.415 67.3643 12.6064L65.4365 12.6201C65.4593 12.21 65.5732 11.8568 65.7783 11.5605C65.988 11.2598 66.2523 11.0137 66.5713 10.8223C66.8903 10.6309 67.2367 10.4896 67.6104 10.3984C67.9886 10.3073 68.3577 10.2663 68.7178 10.2754C69.2327 10.2845 69.6908 10.3916 70.0918 10.5967C70.4974 10.8018 70.8073 11.0957 71.0215 11.4785C71.2402 11.8568 71.3223 12.3171 71.2676 12.8594L70.7549 16.0312C70.7139 16.2956 70.682 16.5736 70.6592 16.8652C70.6364 17.1523 70.6774 17.4258 70.7822 17.6855L70.7686 17.8086L68.8818 17.8154C68.7952 17.5465 68.752 17.2708 68.752 16.9883C68.7565 16.7012 68.7793 16.4186 68.8203 16.1406ZM69.5586 13.3037L69.374 14.418L68.3965 14.4111C68.2005 14.4157 68.0046 14.443 67.8086 14.4932C67.6172 14.5387 67.4395 14.6117 67.2754 14.7119C67.1113 14.8076 66.9746 14.9329 66.8652 15.0879C66.7604 15.2428 66.6943 15.432 66.667 15.6553C66.6442 15.8148 66.6602 15.9583 66.7148 16.0859C66.7695 16.209 66.8538 16.307 66.9678 16.3799C67.0863 16.4528 67.2275 16.4915 67.3916 16.4961C67.624 16.5007 67.8519 16.4574 68.0752 16.3662C68.2985 16.2705 68.4922 16.1361 68.6562 15.9629C68.8203 15.7897 68.9342 15.5892 68.998 15.3613L69.4082 16.2158C69.2988 16.471 69.1598 16.7057 68.9912 16.9199C68.8271 17.1341 68.638 17.321 68.4238 17.4805C68.2096 17.6354 67.9749 17.7539 67.7197 17.8359C67.4645 17.9225 67.1911 17.9635 66.8994 17.959C66.4938 17.9499 66.1201 17.8542 65.7783 17.6719C65.4411 17.485 65.1722 17.2321 64.9717 16.9131C64.7757 16.5895 64.6868 16.2135 64.7051 15.7852C64.7233 15.3021 64.8441 14.901 65.0674 14.582C65.2907 14.2585 65.5778 14.0033 65.9287 13.8164C66.2842 13.6296 66.6693 13.4974 67.084 13.4199C67.5033 13.3379 67.918 13.2969 68.3281 13.2969L69.5586 13.3037ZM79.5391 16.1406L80.0586 12.8252C80.0814 12.6247 80.0723 12.4378 80.0312 12.2646C79.9902 12.0915 79.9059 11.9548 79.7783 11.8545C79.6553 11.7497 79.4798 11.6927 79.252 11.6836C79.0469 11.679 78.8623 11.7155 78.6982 11.793C78.5387 11.8659 78.4066 11.973 78.3018 12.1143C78.1969 12.251 78.124 12.415 78.083 12.6064L76.1553 12.6201C76.1781 12.21 76.292 11.8568 76.4971 11.5605C76.7067 11.2598 76.971 11.0137 77.29 10.8223C77.609 10.6309 77.9554 10.4896 78.3291 10.3984C78.7074 10.3073 79.0765 10.2663 79.4365 10.2754C79.9515 10.2845 80.4095 10.3916 80.8105 10.5967C81.2161 10.8018 81.526 11.0957 81.7402 11.4785C81.959 11.8568 82.041 12.3171 81.9863 12.8594L81.4736 16.0312C81.4326 16.2956 81.4007 16.5736 81.3779 16.8652C81.3551 17.1523 81.3962 17.4258 81.501 17.6855L81.4873 17.8086L79.6006 17.8154C79.514 17.5465 79.4707 17.2708 79.4707 16.9883C79.4753 16.7012 79.498 16.4186 79.5391 16.1406ZM80.2773 13.3037L80.0928 14.418L79.1152 14.4111C78.9193 14.4157 78.7233 14.443 78.5273 14.4932C78.3359 14.5387 78.1582 14.6117 77.9941 14.7119C77.8301 14.8076 77.6934 14.9329 77.584 15.0879C77.4792 15.2428 77.4131 15.432 77.3857 15.6553C77.363 15.8148 77.3789 15.9583 77.4336 16.0859C77.4883 16.209 77.5726 16.307 77.6865 16.3799C77.805 16.4528 77.9463 16.4915 78.1104 16.4961C78.3428 16.5007 78.5706 16.4574 78.7939 16.3662C79.0173 16.2705 79.2109 16.1361 79.375 15.9629C79.5391 15.7897 79.653 15.5892 79.7168 15.3613L80.127 16.2158C80.0176 16.471 79.8786 16.7057 79.71 16.9199C79.5459 17.1341 79.3568 17.321 79.1426 17.4805C78.9284 17.6354 78.6937 17.7539 78.4385 17.8359C78.1833 17.9225 77.9098 17.9635 77.6182 17.959C77.2126 17.9499 76.8389 17.8542 76.4971 17.6719C76.1598 17.485 75.891 17.2321 75.6904 16.9131C75.4945 16.5895 75.4056 16.2135 75.4238 15.7852C75.4421 15.3021 75.5628 14.901 75.7861 14.582C76.0094 14.2585 76.2965 14.0033 76.6475 13.8164C77.0029 13.6296 77.388 13.4974 77.8027 13.4199C78.222 13.3379 78.6367 13.2969 79.0469 13.2969L80.2773 13.3037ZM88.9453 12.1006L87.9541 17.8086H86.0264L87.3115 10.4121H89.1162L88.9453 12.1006ZM88.3779 13.8506L87.8994 13.8643C87.9495 13.4222 88.0498 12.9847 88.2002 12.5518C88.3506 12.1188 88.5557 11.7292 88.8154 11.3828C89.0798 11.0319 89.401 10.7562 89.7793 10.5557C90.1621 10.3551 90.6064 10.2594 91.1123 10.2686C91.5225 10.2822 91.8597 10.3688 92.124 10.5283C92.3929 10.6833 92.598 10.8929 92.7393 11.1572C92.8851 11.4215 92.9785 11.7201 93.0195 12.0527C93.0651 12.3854 93.0697 12.7318 93.0332 13.0918L92.2402 17.8086H90.3057L91.1055 13.0713C91.1328 12.8298 91.126 12.6156 91.085 12.4287C91.0439 12.2419 90.9528 12.0938 90.8115 11.9844C90.6748 11.875 90.4743 11.818 90.21 11.8135C89.9183 11.8044 89.6654 11.859 89.4512 11.9775C89.2415 12.096 89.0638 12.2555 88.918 12.4561C88.7721 12.6566 88.6559 12.8776 88.5693 13.1191C88.4827 13.3607 88.4189 13.6045 88.3779 13.8506ZM94.0244 14.2266L94.0449 14.083C94.0996 13.5589 94.2249 13.0667 94.4209 12.6064C94.6214 12.1416 94.8857 11.7337 95.2139 11.3828C95.5465 11.0273 95.9362 10.7516 96.3828 10.5557C96.834 10.3551 97.3398 10.2617 97.9004 10.2754C98.4336 10.2845 98.8939 10.3916 99.2812 10.5967C99.6686 10.8018 99.9854 11.0775 100.231 11.4238C100.482 11.7702 100.658 12.1667 100.758 12.6133C100.863 13.0599 100.892 13.5316 100.847 14.0283L100.833 14.1787C100.774 14.6982 100.642 15.1882 100.437 15.6484C100.236 16.1042 99.9694 16.5075 99.6367 16.8584C99.3086 17.2048 98.9189 17.4759 98.4678 17.6719C98.0166 17.8678 97.5153 17.959 96.9639 17.9453C96.4398 17.9362 95.9818 17.8314 95.5898 17.6309C95.1979 17.4258 94.8789 17.1523 94.6328 16.8105C94.3867 16.4642 94.2135 16.07 94.1133 15.6279C94.013 15.1859 93.9834 14.7188 94.0244 14.2266ZM95.9658 14.083L95.9521 14.2334C95.9294 14.4521 95.9225 14.6868 95.9316 14.9375C95.9408 15.1836 95.9795 15.4183 96.0479 15.6416C96.1208 15.8649 96.2393 16.0472 96.4033 16.1885C96.5674 16.3298 96.793 16.4049 97.0801 16.4141C97.3854 16.4232 97.6475 16.3617 97.8662 16.2295C98.085 16.0973 98.265 15.9196 98.4062 15.6963C98.5475 15.4684 98.6592 15.2223 98.7412 14.958C98.8232 14.6891 98.8779 14.4271 98.9053 14.1719L98.9189 14.0283C98.9372 13.8096 98.9417 13.5749 98.9326 13.3242C98.9281 13.069 98.8893 12.8298 98.8164 12.6064C98.7435 12.3786 98.625 12.1917 98.4609 12.0459C98.2969 11.9001 98.0713 11.8226 97.7842 11.8135C97.4788 11.7998 97.2168 11.8636 96.998 12.0049C96.7793 12.1416 96.5993 12.3239 96.458 12.5518C96.3167 12.7796 96.2051 13.028 96.123 13.2969C96.0456 13.5658 95.9932 13.8278 95.9658 14.083ZM103.991 16.291L106.486 10.4121H108.551L104.969 17.8086H103.718L103.991 16.291ZM103.807 10.4121L104.483 16.4756L104.306 17.8086H103.116L101.845 10.4121H103.807ZM112.201 16.1406L112.721 12.8252C112.743 12.6247 112.734 12.4378 112.693 12.2646C112.652 12.0915 112.568 11.9548 112.44 11.8545C112.317 11.7497 112.142 11.6927 111.914 11.6836C111.709 11.679 111.524 11.7155 111.36 11.793C111.201 11.8659 111.069 11.973 110.964 12.1143C110.859 12.251 110.786 12.415 110.745 12.6064L108.817 12.6201C108.84 12.21 108.954 11.8568 109.159 11.5605C109.369 11.2598 109.633 11.0137 109.952 10.8223C110.271 10.6309 110.618 10.4896 110.991 10.3984C111.369 10.3073 111.739 10.2663 112.099 10.2754C112.614 10.2845 113.072 10.3916 113.473 10.5967C113.878 10.8018 114.188 11.0957 114.402 11.4785C114.621 11.8568 114.703 12.3171 114.648 12.8594L114.136 16.0312C114.095 16.2956 114.063 16.5736 114.04 16.8652C114.017 17.1523 114.058 17.4258 114.163 17.6855L114.149 17.8086L112.263 17.8154C112.176 17.5465 112.133 17.2708 112.133 16.9883C112.137 16.7012 112.16 16.4186 112.201 16.1406ZM112.939 13.3037L112.755 14.418L111.777 14.4111C111.581 14.4157 111.385 14.443 111.189 14.4932C110.998 14.5387 110.82 14.6117 110.656 14.7119C110.492 14.8076 110.355 14.9329 110.246 15.0879C110.141 15.2428 110.075 15.432 110.048 15.6553C110.025 15.8148 110.041 15.9583 110.096 16.0859C110.15 16.209 110.235 16.307 110.349 16.3799C110.467 16.4528 110.608 16.4915 110.772 16.4961C111.005 16.5007 111.233 16.4574 111.456 16.3662C111.679 16.2705 111.873 16.1361 112.037 15.9629C112.201 15.7897 112.315 15.5892 112.379 15.3613L112.789 16.2158C112.68 16.471 112.541 16.7057 112.372 16.9199C112.208 17.1341 112.019 17.321 111.805 17.4805C111.59 17.6354 111.356 17.7539 111.101 17.8359C110.845 17.9225 110.572 17.9635 110.28 17.959C109.875 17.9499 109.501 17.8542 109.159 17.6719C108.822 17.485 108.553 17.2321 108.353 16.9131C108.157 16.5895 108.068 16.2135 108.086 15.7852C108.104 15.3021 108.225 14.901 108.448 14.582C108.672 14.2585 108.959 14.0033 109.31 13.8164C109.665 13.6296 110.05 13.4974 110.465 13.4199C110.884 13.3379 111.299 13.2969 111.709 13.2969L112.939 13.3037ZM121.676 11.9434L120.165 20.6523H118.237L120.015 10.4121H121.792L121.676 11.9434ZM125.846 13.9873L125.825 14.1309C125.771 14.5775 125.666 15.0286 125.511 15.4844C125.36 15.9401 125.153 16.3571 124.889 16.7354C124.624 17.109 124.299 17.4098 123.911 17.6377C123.524 17.861 123.068 17.9658 122.544 17.9521C122.084 17.9385 121.701 17.8177 121.396 17.5898C121.09 17.362 120.851 17.0703 120.678 16.7148C120.505 16.3548 120.384 15.9674 120.315 15.5527C120.247 15.138 120.22 14.7415 120.233 14.3633L120.281 13.9805C120.35 13.5658 120.468 13.1396 120.637 12.7021C120.805 12.2601 121.024 11.8545 121.293 11.4854C121.562 11.1117 121.883 10.8132 122.257 10.5898C122.631 10.362 123.061 10.2549 123.549 10.2686C124.055 10.2822 124.467 10.403 124.786 10.6309C125.11 10.8587 125.356 11.1549 125.524 11.5195C125.693 11.8841 125.798 12.2829 125.839 12.7158C125.884 13.1442 125.887 13.568 125.846 13.9873ZM123.904 14.124L123.925 13.9805C123.943 13.7799 123.952 13.5589 123.952 13.3174C123.952 13.0713 123.925 12.8366 123.87 12.6133C123.815 12.39 123.715 12.2031 123.569 12.0527C123.424 11.9023 123.214 11.8226 122.94 11.8135C122.662 11.7998 122.419 11.8431 122.209 11.9434C121.999 12.0436 121.822 12.1849 121.676 12.3672C121.535 12.5449 121.418 12.7477 121.327 12.9756C121.236 13.2035 121.17 13.4382 121.129 13.6797L120.992 14.6367C120.969 14.9147 120.988 15.1904 121.047 15.4639C121.106 15.7327 121.222 15.9561 121.396 16.1338C121.573 16.3115 121.828 16.4049 122.161 16.4141C122.462 16.4186 122.717 16.3503 122.927 16.209C123.136 16.0677 123.307 15.8809 123.439 15.6484C123.576 15.4115 123.681 15.1585 123.754 14.8896C123.827 14.6208 123.877 14.3656 123.904 14.124ZM130.228 7.30859L128.409 17.8086H126.481L128.3 7.30859H130.228ZM134.158 16.1406L134.678 12.8252C134.701 12.6247 134.691 12.4378 134.65 12.2646C134.609 12.0915 134.525 11.9548 134.397 11.8545C134.274 11.7497 134.099 11.6927 133.871 11.6836C133.666 11.679 133.481 11.7155 133.317 11.793C133.158 11.8659 133.026 11.973 132.921 12.1143C132.816 12.251 132.743 12.415 132.702 12.6064L130.774 12.6201C130.797 12.21 130.911 11.8568 131.116 11.5605C131.326 11.2598 131.59 11.0137 131.909 10.8223C132.228 10.6309 132.575 10.4896 132.948 10.3984C133.326 10.3073 133.696 10.2663 134.056 10.2754C134.571 10.2845 135.029 10.3916 135.43 10.5967C135.835 10.8018 136.145 11.0957 136.359 11.4785C136.578 11.8568 136.66 12.3171 136.605 12.8594L136.093 16.0312C136.052 16.2956 136.02 16.5736 135.997 16.8652C135.974 17.1523 136.015 17.4258 136.12 17.6855L136.106 17.8086L134.22 17.8154C134.133 17.5465 134.09 17.2708 134.09 16.9883C134.094 16.7012 134.117 16.4186 134.158 16.1406ZM134.896 13.3037L134.712 14.418L133.734 14.4111C133.538 14.4157 133.342 14.443 133.146 14.4932C132.955 14.5387 132.777 14.6117 132.613 14.7119C132.449 14.8076 132.312 14.9329 132.203 15.0879C132.098 15.2428 132.032 15.432 132.005 15.6553C131.982 15.8148 131.998 15.9583 132.053 16.0859C132.107 16.209 132.192 16.307 132.306 16.3799C132.424 16.4528 132.565 16.4915 132.729 16.4961C132.962 16.5007 133.19 16.4574 133.413 16.3662C133.636 16.2705 133.83 16.1361 133.994 15.9629C134.158 15.7897 134.272 15.5892 134.336 15.3613L134.746 16.2158C134.637 16.471 134.498 16.7057 134.329 16.9199C134.165 17.1341 133.976 17.321 133.762 17.4805C133.548 17.6354 133.313 17.7539 133.058 17.8359C132.802 17.9225 132.529 17.9635 132.237 17.959C131.832 17.9499 131.458 17.8542 131.116 17.6719C130.779 17.485 130.51 17.2321 130.31 16.9131C130.114 16.5895 130.025 16.2135 130.043 15.7852C130.061 15.3021 130.182 14.901 130.405 14.582C130.629 14.2585 130.916 14.0033 131.267 13.8164C131.622 13.6296 132.007 13.4974 132.422 13.4199C132.841 13.3379 133.256 13.2969 133.666 13.2969L134.896 13.3037ZM142.061 10.4121L141.814 11.8066H137.624L137.87 10.4121H142.061ZM139.224 8.58691H141.145L139.941 15.5938C139.923 15.7533 139.923 15.89 139.941 16.0039C139.964 16.1133 140.017 16.1976 140.099 16.2568C140.181 16.3161 140.308 16.3503 140.481 16.3594C140.577 16.3639 140.673 16.3617 140.769 16.3525C140.864 16.3389 140.962 16.3252 141.062 16.3115L140.926 17.7812C140.743 17.8359 140.559 17.8747 140.372 17.8975C140.19 17.9248 140.003 17.9385 139.812 17.9385C139.374 17.9294 139.014 17.8337 138.731 17.6514C138.453 17.4691 138.253 17.2184 138.13 16.8994C138.011 16.5758 137.973 16.2021 138.014 15.7783L139.224 8.58691ZM146.025 16.1406L146.545 12.8252C146.568 12.6247 146.559 12.4378 146.518 12.2646C146.477 12.0915 146.392 11.9548 146.265 11.8545C146.142 11.7497 145.966 11.6927 145.738 11.6836C145.533 11.679 145.349 11.7155 145.185 11.793C145.025 11.8659 144.893 11.973 144.788 12.1143C144.683 12.251 144.61 12.415 144.569 12.6064L142.642 12.6201C142.664 12.21 142.778 11.8568 142.983 11.5605C143.193 11.2598 143.457 11.0137 143.776 10.8223C144.095 10.6309 144.442 10.4896 144.815 10.3984C145.194 10.3073 145.563 10.2663 145.923 10.2754C146.438 10.2845 146.896 10.3916 147.297 10.5967C147.702 10.8018 148.012 11.0957 148.227 11.4785C148.445 11.8568 148.527 12.3171 148.473 12.8594L147.96 16.0312C147.919 16.2956 147.887 16.5736 147.864 16.8652C147.841 17.1523 147.882 17.4258 147.987 17.6855L147.974 17.8086L146.087 17.8154C146 17.5465 145.957 17.2708 145.957 16.9883C145.962 16.7012 145.984 16.4186 146.025 16.1406ZM146.764 13.3037L146.579 14.418L145.602 14.4111C145.406 14.4157 145.21 14.443 145.014 14.4932C144.822 14.5387 144.645 14.6117 144.48 14.7119C144.316 14.8076 144.18 14.9329 144.07 15.0879C143.965 15.2428 143.899 15.432 143.872 15.6553C143.849 15.8148 143.865 15.9583 143.92 16.0859C143.975 16.209 144.059 16.307 144.173 16.3799C144.291 16.4528 144.433 16.4915 144.597 16.4961C144.829 16.5007 145.057 16.4574 145.28 16.3662C145.504 16.2705 145.697 16.1361 145.861 15.9629C146.025 15.7897 146.139 15.5892 146.203 15.3613L146.613 16.2158C146.504 16.471 146.365 16.7057 146.196 16.9199C146.032 17.1341 145.843 17.321 145.629 17.4805C145.415 17.6354 145.18 17.7539 144.925 17.8359C144.67 17.9225 144.396 17.9635 144.104 17.959C143.699 17.9499 143.325 17.8542 142.983 17.6719C142.646 17.485 142.377 17.2321 142.177 16.9131C141.981 16.5895 141.892 16.2135 141.91 15.7852C141.928 15.3021 142.049 14.901 142.272 14.582C142.496 14.2585 142.783 14.0033 143.134 13.8164C143.489 13.6296 143.874 13.4974 144.289 13.4199C144.708 13.3379 145.123 13.2969 145.533 13.2969L146.764 13.3037ZM151.556 17.8086H149.628L150.995 9.75586C151.068 9.21354 151.232 8.74642 151.487 8.35449C151.747 7.96257 152.087 7.66178 152.506 7.45215C152.925 7.23796 153.413 7.13542 153.969 7.14453C154.146 7.14909 154.322 7.16504 154.495 7.19238C154.673 7.21973 154.846 7.25163 155.015 7.28809L154.851 8.77832C154.759 8.75553 154.664 8.7373 154.563 8.72363C154.468 8.70996 154.372 8.70085 154.276 8.69629C154.044 8.69629 153.834 8.7373 153.647 8.81934C153.465 8.90137 153.312 9.01986 153.189 9.1748C153.071 9.32975 152.989 9.52344 152.943 9.75586L151.556 17.8086ZM154.276 10.4121L154.03 11.8066H149.601L149.847 10.4121H154.276ZM154.317 14.2266L154.338 14.083C154.393 13.5589 154.518 13.0667 154.714 12.6064C154.914 12.1416 155.179 11.7337 155.507 11.3828C155.84 11.0273 156.229 10.7516 156.676 10.5557C157.127 10.3551 157.633 10.2617 158.193 10.2754C158.727 10.2845 159.187 10.3916 159.574 10.5967C159.962 10.8018 160.278 11.0775 160.524 11.4238C160.775 11.7702 160.951 12.1667 161.051 12.6133C161.156 13.0599 161.185 13.5316 161.14 14.0283L161.126 14.1787C161.067 14.6982 160.935 15.1882 160.729 15.6484C160.529 16.1042 160.262 16.5075 159.93 16.8584C159.602 17.2048 159.212 17.4759 158.761 17.6719C158.31 17.8678 157.808 17.959 157.257 17.9453C156.733 17.9362 156.275 17.8314 155.883 17.6309C155.491 17.4258 155.172 17.1523 154.926 16.8105C154.68 16.4642 154.507 16.07 154.406 15.6279C154.306 15.1859 154.276 14.7188 154.317 14.2266ZM156.259 14.083L156.245 14.2334C156.222 14.4521 156.215 14.6868 156.225 14.9375C156.234 15.1836 156.272 15.4183 156.341 15.6416C156.414 15.8649 156.532 16.0472 156.696 16.1885C156.86 16.3298 157.086 16.4049 157.373 16.4141C157.678 16.4232 157.94 16.3617 158.159 16.2295C158.378 16.0973 158.558 15.9196 158.699 15.6963C158.84 15.4684 158.952 15.2223 159.034 14.958C159.116 14.6891 159.171 14.4271 159.198 14.1719L159.212 14.0283C159.23 13.8096 159.235 13.5749 159.226 13.3242C159.221 13.069 159.182 12.8298 159.109 12.6064C159.036 12.3786 158.918 12.1917 158.754 12.0459C158.59 11.9001 158.364 11.8226 158.077 11.8135C157.772 11.7998 157.51 11.8636 157.291 12.0049C157.072 12.1416 156.892 12.3239 156.751 12.5518C156.61 12.7796 156.498 13.028 156.416 13.2969C156.339 13.5658 156.286 13.8278 156.259 14.083ZM164.558 12.1279L163.573 17.8086H161.652L162.938 10.4121H164.742L164.558 12.1279ZM166.971 10.3506L166.731 12.1895C166.622 12.1712 166.51 12.1553 166.396 12.1416C166.287 12.1279 166.175 12.1188 166.062 12.1143C165.797 12.1097 165.558 12.1439 165.344 12.2168C165.13 12.2897 164.943 12.3968 164.783 12.5381C164.628 12.6748 164.496 12.8434 164.387 13.0439C164.282 13.2445 164.202 13.4701 164.147 13.7207L163.771 13.5977C163.817 13.2467 163.892 12.8776 163.997 12.4902C164.106 12.0983 164.257 11.7337 164.448 11.3965C164.644 11.0547 164.893 10.779 165.193 10.5693C165.499 10.3551 165.87 10.2503 166.308 10.2549C166.422 10.2549 166.531 10.264 166.636 10.2822C166.745 10.3005 166.857 10.3232 166.971 10.3506ZM169.541 12.0527L168.55 17.8086H166.622L167.907 10.4121H169.705L169.541 12.0527ZM168.987 13.8506L168.475 13.8574C168.529 13.4108 168.63 12.971 168.775 12.5381C168.926 12.1051 169.131 11.7155 169.391 11.3691C169.655 11.0228 169.979 10.7493 170.361 10.5488C170.744 10.3483 171.191 10.2549 171.701 10.2686C172.079 10.2777 172.394 10.3551 172.645 10.501C172.895 10.6468 173.093 10.8405 173.239 11.082C173.385 11.3236 173.481 11.5993 173.526 11.9092C173.576 12.2191 173.586 12.5404 173.554 12.873L172.733 17.8086H170.812L171.599 13.085C171.626 12.8571 171.624 12.6475 171.592 12.4561C171.56 12.2646 171.48 12.112 171.353 11.998C171.225 11.8796 171.031 11.8158 170.771 11.8066C170.489 11.7975 170.243 11.8545 170.033 11.9775C169.824 12.096 169.648 12.2555 169.507 12.4561C169.37 12.6566 169.258 12.8799 169.172 13.126C169.085 13.3675 169.024 13.609 168.987 13.8506ZM173.301 13.625L172.61 13.7207C172.66 13.2832 172.761 12.8594 172.911 12.4492C173.062 12.0345 173.267 11.6608 173.526 11.3281C173.786 10.9954 174.103 10.7334 174.477 10.542C174.85 10.3506 175.283 10.2594 175.775 10.2686C176.181 10.2822 176.518 10.3665 176.787 10.5215C177.056 10.6764 177.263 10.8861 177.409 11.1504C177.56 11.4147 177.658 11.7132 177.703 12.0459C177.749 12.374 177.753 12.7204 177.717 13.085L176.924 17.8086H174.996L175.789 13.0781C175.816 12.8503 175.814 12.6429 175.782 12.4561C175.75 12.2646 175.671 12.112 175.543 11.998C175.42 11.8796 175.229 11.818 174.969 11.8135C174.709 11.8044 174.481 11.8522 174.285 11.957C174.094 12.0573 173.932 12.1963 173.8 12.374C173.668 12.5472 173.561 12.7432 173.479 12.9619C173.396 13.1807 173.337 13.4017 173.301 13.625ZM182.584 16.1406L183.104 12.8252C183.126 12.6247 183.117 12.4378 183.076 12.2646C183.035 12.0915 182.951 11.9548 182.823 11.8545C182.7 11.7497 182.525 11.6927 182.297 11.6836C182.092 11.679 181.907 11.7155 181.743 11.793C181.584 11.8659 181.451 11.973 181.347 12.1143C181.242 12.251 181.169 12.415 181.128 12.6064L179.2 12.6201C179.223 12.21 179.337 11.8568 179.542 11.5605C179.752 11.2598 180.016 11.0137 180.335 10.8223C180.654 10.6309 181 10.4896 181.374 10.3984C181.752 10.3073 182.121 10.2663 182.481 10.2754C182.996 10.2845 183.454 10.3916 183.855 10.5967C184.261 10.8018 184.571 11.0957 184.785 11.4785C185.004 11.8568 185.086 12.3171 185.031 12.8594L184.519 16.0312C184.478 16.2956 184.446 16.5736 184.423 16.8652C184.4 17.1523 184.441 17.4258 184.546 17.6855L184.532 17.8086L182.646 17.8154C182.559 17.5465 182.516 17.2708 182.516 16.9883C182.52 16.7012 182.543 16.4186 182.584 16.1406ZM183.322 13.3037L183.138 14.418L182.16 14.4111C181.964 14.4157 181.768 14.443 181.572 14.4932C181.381 14.5387 181.203 14.6117 181.039 14.7119C180.875 14.8076 180.738 14.9329 180.629 15.0879C180.524 15.2428 180.458 15.432 180.431 15.6553C180.408 15.8148 180.424 15.9583 180.479 16.0859C180.533 16.209 180.618 16.307 180.731 16.3799C180.85 16.4528 180.991 16.4915 181.155 16.4961C181.388 16.5007 181.616 16.4574 181.839 16.3662C182.062 16.2705 182.256 16.1361 182.42 15.9629C182.584 15.7897 182.698 15.5892 182.762 15.3613L183.172 16.2158C183.062 16.471 182.924 16.7057 182.755 16.9199C182.591 17.1341 182.402 17.321 182.188 17.4805C181.973 17.6354 181.739 17.7539 181.483 17.8359C181.228 17.9225 180.955 17.9635 180.663 17.959C180.257 17.9499 179.884 17.8542 179.542 17.6719C179.205 17.485 178.936 17.2321 178.735 16.9131C178.539 16.5895 178.451 16.2135 178.469 15.7852C178.487 15.3021 178.608 14.901 178.831 14.582C179.054 14.2585 179.341 14.0033 179.692 13.8164C180.048 13.6296 180.433 13.4974 180.848 13.4199C181.267 13.3379 181.682 13.2969 182.092 13.2969L183.322 13.3037ZM189.57 7.85547L188.148 14.7666H186.549L187.526 7.85547H189.57ZM185.906 16.9404C185.897 16.6305 185.997 16.3776 186.207 16.1816C186.421 15.9811 186.679 15.8809 186.979 15.8809C187.271 15.8763 187.522 15.9674 187.731 16.1543C187.941 16.3366 188.048 16.5758 188.053 16.8721C188.057 17.1774 187.952 17.4303 187.738 17.6309C187.529 17.8268 187.273 17.9248 186.973 17.9248C186.686 17.9294 186.437 17.8405 186.228 17.6582C186.018 17.4759 185.911 17.2367 185.906 16.9404Z" fill="#00213A"/>
</svg>
