<svg width="87" height="15" viewBox="0 0 87 15" fill="none" xmlns="http://www.w3.org/2000/svg">
<path d="M22.1172 8.73926H23.0547C23.0059 9.18848 22.8773 9.59049 22.6689 9.94531C22.4606 10.3001 22.166 10.5817 21.7852 10.79C21.4043 10.9951 20.929 11.0977 20.3594 11.0977C19.9427 11.0977 19.5635 11.0195 19.2217 10.8633C18.8831 10.707 18.5918 10.4857 18.3477 10.1992C18.1035 9.90951 17.9147 9.56283 17.7812 9.15918C17.651 8.75228 17.5859 8.2998 17.5859 7.80176V7.09375C17.5859 6.5957 17.651 6.14486 17.7812 5.74121C17.9147 5.33431 18.1051 4.986 18.3525 4.69629C18.6032 4.40658 18.9043 4.18359 19.2559 4.02734C19.6074 3.87109 20.0029 3.79297 20.4424 3.79297C20.9795 3.79297 21.4336 3.89388 21.8047 4.0957C22.1758 4.29753 22.4639 4.57747 22.6689 4.93555C22.8773 5.29036 23.0059 5.70215 23.0547 6.1709H22.1172C22.0716 5.83887 21.987 5.55404 21.8633 5.31641C21.7396 5.07552 21.5638 4.88997 21.3359 4.75977C21.1081 4.62956 20.8102 4.56445 20.4424 4.56445C20.1266 4.56445 19.8483 4.62467 19.6074 4.74512C19.3698 4.86556 19.1696 5.03646 19.0068 5.25781C18.8473 5.47917 18.7269 5.74447 18.6455 6.05371C18.5641 6.36296 18.5234 6.70638 18.5234 7.08398V7.80176C18.5234 8.15007 18.5592 8.47721 18.6309 8.7832C18.7057 9.08919 18.818 9.35775 18.9678 9.58887C19.1175 9.81999 19.3079 10.0023 19.5391 10.1357C19.7702 10.266 20.0436 10.3311 20.3594 10.3311C20.7598 10.3311 21.0788 10.2676 21.3164 10.1406C21.554 10.0137 21.7331 9.83138 21.8535 9.59375C21.9772 9.35612 22.0651 9.07129 22.1172 8.73926ZM23.9629 8.41699V8.30469C23.9629 7.92383 24.0182 7.57064 24.1289 7.24512C24.2396 6.91634 24.3991 6.63151 24.6074 6.39062C24.8158 6.14648 25.068 5.95768 25.3643 5.82422C25.6605 5.6875 25.9925 5.61914 26.3604 5.61914C26.7314 5.61914 27.0651 5.6875 27.3613 5.82422C27.6608 5.95768 27.9147 6.14648 28.123 6.39062C28.3346 6.63151 28.4958 6.91634 28.6064 7.24512C28.7171 7.57064 28.7725 7.92383 28.7725 8.30469V8.41699C28.7725 8.79785 28.7171 9.15104 28.6064 9.47656C28.4958 9.80208 28.3346 10.0869 28.123 10.3311C27.9147 10.5719 27.6624 10.7607 27.3662 10.8975C27.0732 11.0309 26.7412 11.0977 26.3701 11.0977C25.999 11.0977 25.6654 11.0309 25.3691 10.8975C25.0729 10.7607 24.819 10.5719 24.6074 10.3311C24.3991 10.0869 24.2396 9.80208 24.1289 9.47656C24.0182 9.15104 23.9629 8.79785 23.9629 8.41699ZM24.8662 8.30469V8.41699C24.8662 8.68066 24.8971 8.92969 24.959 9.16406C25.0208 9.39518 25.1136 9.60026 25.2373 9.7793C25.3643 9.95833 25.5221 10.0999 25.7109 10.2041C25.8997 10.305 26.1195 10.3555 26.3701 10.3555C26.6175 10.3555 26.834 10.305 27.0195 10.2041C27.2083 10.0999 27.3646 9.95833 27.4883 9.7793C27.612 9.60026 27.7048 9.39518 27.7666 9.16406C27.8317 8.92969 27.8643 8.68066 27.8643 8.41699V8.30469C27.8643 8.04427 27.8317 7.7985 27.7666 7.56738C27.7048 7.33301 27.6104 7.1263 27.4834 6.94727C27.3597 6.76497 27.2035 6.62174 27.0146 6.51758C26.8291 6.41341 26.611 6.36133 26.3604 6.36133C26.113 6.36133 25.8949 6.41341 25.7061 6.51758C25.5205 6.62174 25.3643 6.76497 25.2373 6.94727C25.1136 7.1263 25.0208 7.33301 24.959 7.56738C24.8971 7.7985 24.8662 8.04427 24.8662 8.30469ZM30.8037 6.7666V11H29.8955V5.7168H30.7549L30.8037 6.7666ZM30.6182 8.1582L30.1982 8.14355C30.2015 7.78223 30.2487 7.44857 30.3398 7.14258C30.431 6.83333 30.5661 6.56478 30.7451 6.33691C30.9242 6.10905 31.1471 5.93327 31.4141 5.80957C31.681 5.68262 31.9902 5.61914 32.3418 5.61914C32.5892 5.61914 32.8171 5.65495 33.0254 5.72656C33.2337 5.79492 33.4144 5.90397 33.5674 6.05371C33.7204 6.20345 33.8392 6.39551 33.9238 6.62988C34.0085 6.86426 34.0508 7.14746 34.0508 7.47949V11H33.1475V7.52344C33.1475 7.24674 33.1003 7.02539 33.0059 6.85938C32.9147 6.69336 32.7845 6.57292 32.6152 6.49805C32.446 6.41992 32.2474 6.38086 32.0195 6.38086C31.7526 6.38086 31.5296 6.42806 31.3506 6.52246C31.1715 6.61686 31.0283 6.74707 30.9209 6.91309C30.8135 7.0791 30.7354 7.26953 30.6865 7.48438C30.641 7.69596 30.6182 7.92057 30.6182 8.1582ZM34.041 7.66016L33.4355 7.8457C33.4388 7.55599 33.486 7.27767 33.5771 7.01074C33.6715 6.74382 33.8066 6.50618 33.9824 6.29785C34.1615 6.08952 34.3812 5.92513 34.6416 5.80469C34.902 5.68099 35.1999 5.61914 35.5352 5.61914C35.8184 5.61914 36.069 5.65658 36.2871 5.73145C36.5085 5.80632 36.694 5.92188 36.8438 6.07812C36.9967 6.23112 37.1123 6.42806 37.1904 6.66895C37.2686 6.90983 37.3076 7.19629 37.3076 7.52832V11H36.3994V7.51855C36.3994 7.22233 36.3522 6.99284 36.2578 6.83008C36.1667 6.66406 36.0365 6.5485 35.8672 6.4834C35.7012 6.41504 35.5026 6.38086 35.2715 6.38086C35.0729 6.38086 34.8971 6.41504 34.7441 6.4834C34.5911 6.55176 34.4626 6.64616 34.3584 6.7666C34.2542 6.88379 34.1745 7.01888 34.1191 7.17188C34.0671 7.32487 34.041 7.48763 34.041 7.66016ZM38.4355 8.41699V8.30469C38.4355 7.92383 38.4909 7.57064 38.6016 7.24512C38.7122 6.91634 38.8717 6.63151 39.0801 6.39062C39.2884 6.14648 39.5407 5.95768 39.8369 5.82422C40.1331 5.6875 40.4652 5.61914 40.833 5.61914C41.2041 5.61914 41.5378 5.6875 41.834 5.82422C42.1335 5.95768 42.3874 6.14648 42.5957 6.39062C42.8073 6.63151 42.9684 6.91634 43.0791 7.24512C43.1898 7.57064 43.2451 7.92383 43.2451 8.30469V8.41699C43.2451 8.79785 43.1898 9.15104 43.0791 9.47656C42.9684 9.80208 42.8073 10.0869 42.5957 10.3311C42.3874 10.5719 42.1351 10.7607 41.8389 10.8975C41.5459 11.0309 41.2139 11.0977 40.8428 11.0977C40.4717 11.0977 40.138 11.0309 39.8418 10.8975C39.5456 10.7607 39.2917 10.5719 39.0801 10.3311C38.8717 10.0869 38.7122 9.80208 38.6016 9.47656C38.4909 9.15104 38.4355 8.79785 38.4355 8.41699ZM39.3389 8.30469V8.41699C39.3389 8.68066 39.3698 8.92969 39.4316 9.16406C39.4935 9.39518 39.5863 9.60026 39.71 9.7793C39.8369 9.95833 39.9948 10.0999 40.1836 10.2041C40.3724 10.305 40.5921 10.3555 40.8428 10.3555C41.0902 10.3555 41.3066 10.305 41.4922 10.2041C41.681 10.0999 41.8372 9.95833 41.9609 9.7793C42.0846 9.60026 42.1774 9.39518 42.2393 9.16406C42.3044 8.92969 42.3369 8.68066 42.3369 8.41699V8.30469C42.3369 8.04427 42.3044 7.7985 42.2393 7.56738C42.1774 7.33301 42.083 7.1263 41.9561 6.94727C41.8324 6.76497 41.6761 6.62174 41.4873 6.51758C41.3018 6.41341 41.0837 6.36133 40.833 6.36133C40.5856 6.36133 40.3675 6.41341 40.1787 6.51758C39.9932 6.62174 39.8369 6.76497 39.71 6.94727C39.5863 7.1263 39.4935 7.33301 39.4316 7.56738C39.3698 7.7985 39.3389 8.04427 39.3389 8.30469ZM47.9375 3.89062V11H46.9951V3.89062H47.9375ZM50.916 7.08887V7.86035H47.7324V7.08887H50.916ZM51.3994 3.89062V4.66211H47.7324V3.89062H51.3994ZM55.5107 9.7793V5.7168H56.4189V11H55.5547L55.5107 9.7793ZM55.6816 8.66602L56.0576 8.65625C56.0576 9.00781 56.0202 9.33333 55.9453 9.63281C55.8737 9.92904 55.7565 10.1862 55.5938 10.4043C55.431 10.6224 55.2178 10.7933 54.9541 10.917C54.6904 11.0374 54.3698 11.0977 53.9922 11.0977C53.735 11.0977 53.499 11.0602 53.2842 10.9854C53.0726 10.9105 52.8903 10.7949 52.7373 10.6387C52.5843 10.4824 52.4655 10.279 52.3809 10.0283C52.2995 9.77767 52.2588 9.47656 52.2588 9.125V5.7168H53.1621V9.13477C53.1621 9.3724 53.1882 9.56934 53.2402 9.72559C53.2956 9.87858 53.3688 10.0007 53.46 10.0918C53.5544 10.1797 53.6585 10.2415 53.7725 10.2773C53.8896 10.3132 54.0101 10.3311 54.1338 10.3311C54.5179 10.3311 54.8223 10.2578 55.0469 10.1113C55.2715 9.96159 55.4326 9.76139 55.5303 9.51074C55.6312 9.25684 55.6816 8.97526 55.6816 8.66602ZM58.6992 6.84473V11H57.7959V5.7168H58.6504L58.6992 6.84473ZM58.4844 8.1582L58.1084 8.14355C58.1117 7.78223 58.1654 7.44857 58.2695 7.14258C58.3737 6.83333 58.5202 6.56478 58.709 6.33691C58.8978 6.10905 59.1224 5.93327 59.3828 5.80957C59.6465 5.68262 59.9378 5.61914 60.2568 5.61914C60.5173 5.61914 60.7516 5.65495 60.96 5.72656C61.1683 5.79492 61.3457 5.9056 61.4922 6.05859C61.6419 6.21159 61.7559 6.41016 61.834 6.6543C61.9121 6.89518 61.9512 7.18978 61.9512 7.53809V11H61.043V7.52832C61.043 7.25163 61.0023 7.03027 60.9209 6.86426C60.8395 6.69499 60.7207 6.57292 60.5645 6.49805C60.4082 6.41992 60.2161 6.38086 59.9883 6.38086C59.7637 6.38086 59.5586 6.42806 59.373 6.52246C59.1908 6.61686 59.0329 6.74707 58.8994 6.91309C58.7692 7.0791 58.6667 7.26953 58.5918 7.48438C58.5202 7.69596 58.4844 7.92057 58.4844 8.1582ZM65.4375 10.3555C65.6523 10.3555 65.8509 10.3115 66.0332 10.2236C66.2155 10.1357 66.3652 10.0153 66.4824 9.8623C66.5996 9.70605 66.6663 9.52865 66.6826 9.33008H67.542C67.5257 9.64258 67.4199 9.93392 67.2246 10.2041C67.0326 10.471 66.7803 10.6875 66.4678 10.8535C66.1553 11.0163 65.8118 11.0977 65.4375 11.0977C65.0404 11.0977 64.6937 11.0277 64.3975 10.8877C64.1045 10.7477 63.8604 10.5557 63.665 10.3115C63.473 10.0674 63.3281 9.78743 63.2305 9.47168C63.1361 9.15267 63.0889 8.81576 63.0889 8.46094V8.25586C63.0889 7.90104 63.1361 7.56576 63.2305 7.25C63.3281 6.93099 63.473 6.64941 63.665 6.40527C63.8604 6.16113 64.1045 5.96908 64.3975 5.8291C64.6937 5.68913 65.0404 5.61914 65.4375 5.61914C65.8509 5.61914 66.2122 5.70378 66.5215 5.87305C66.8307 6.03906 67.0732 6.26693 67.249 6.55664C67.4281 6.8431 67.5257 7.16862 67.542 7.5332H66.6826C66.6663 7.3151 66.6045 7.11816 66.4971 6.94238C66.3929 6.7666 66.2497 6.62663 66.0674 6.52246C65.8883 6.41504 65.6784 6.36133 65.4375 6.36133C65.1608 6.36133 64.9281 6.41667 64.7393 6.52734C64.5537 6.63477 64.4056 6.78125 64.2949 6.9668C64.1875 7.14909 64.1094 7.35254 64.0605 7.57715C64.015 7.7985 63.9922 8.02474 63.9922 8.25586V8.46094C63.9922 8.69206 64.015 8.91992 64.0605 9.14453C64.1061 9.36914 64.1826 9.57259 64.29 9.75488C64.4007 9.93717 64.5488 10.0837 64.7344 10.1943C64.9232 10.3018 65.1576 10.3555 65.4375 10.3555ZM69.5391 5.7168V11H68.6309V5.7168H69.5391ZM68.5625 4.31543C68.5625 4.16895 68.6064 4.04525 68.6943 3.94434C68.7855 3.84342 68.9189 3.79297 69.0947 3.79297C69.2673 3.79297 69.3991 3.84342 69.4902 3.94434C69.5846 4.04525 69.6318 4.16895 69.6318 4.31543C69.6318 4.4554 69.5846 4.57585 69.4902 4.67676C69.3991 4.77441 69.2673 4.82324 69.0947 4.82324C68.9189 4.82324 68.7855 4.77441 68.6943 4.67676C68.6064 4.57585 68.5625 4.4554 68.5625 4.31543ZM70.75 8.41699V8.30469C70.75 7.92383 70.8053 7.57064 70.916 7.24512C71.0267 6.91634 71.1862 6.63151 71.3945 6.39062C71.6029 6.14648 71.8551 5.95768 72.1514 5.82422C72.4476 5.6875 72.7796 5.61914 73.1475 5.61914C73.5186 5.61914 73.8522 5.6875 74.1484 5.82422C74.4479 5.95768 74.7018 6.14648 74.9102 6.39062C75.1217 6.63151 75.2829 6.91634 75.3936 7.24512C75.5042 7.57064 75.5596 7.92383 75.5596 8.30469V8.41699C75.5596 8.79785 75.5042 9.15104 75.3936 9.47656C75.2829 9.80208 75.1217 10.0869 74.9102 10.3311C74.7018 10.5719 74.4495 10.7607 74.1533 10.8975C73.8604 11.0309 73.5283 11.0977 73.1572 11.0977C72.7861 11.0977 72.4525 11.0309 72.1562 10.8975C71.86 10.7607 71.6061 10.5719 71.3945 10.3311C71.1862 10.0869 71.0267 9.80208 70.916 9.47656C70.8053 9.15104 70.75 8.79785 70.75 8.41699ZM71.6533 8.30469V8.41699C71.6533 8.68066 71.6842 8.92969 71.7461 9.16406C71.8079 9.39518 71.9007 9.60026 72.0244 9.7793C72.1514 9.95833 72.3092 10.0999 72.498 10.2041C72.6868 10.305 72.9066 10.3555 73.1572 10.3555C73.4046 10.3555 73.6211 10.305 73.8066 10.2041C73.9954 10.0999 74.1517 9.95833 74.2754 9.7793C74.3991 9.60026 74.4919 9.39518 74.5537 9.16406C74.6188 8.92969 74.6514 8.68066 74.6514 8.41699V8.30469C74.6514 8.04427 74.6188 7.7985 74.5537 7.56738C74.4919 7.33301 74.3975 7.1263 74.2705 6.94727C74.1468 6.76497 73.9906 6.62174 73.8018 6.51758C73.6162 6.41341 73.3981 6.36133 73.1475 6.36133C72.9001 6.36133 72.682 6.41341 72.4932 6.51758C72.3076 6.62174 72.1514 6.76497 72.0244 6.94727C71.9007 7.1263 71.8079 7.33301 71.7461 7.56738C71.6842 7.7985 71.6533 8.04427 71.6533 8.30469ZM77.5957 6.84473V11H76.6924V5.7168H77.5469L77.5957 6.84473ZM77.3809 8.1582L77.0049 8.14355C77.0081 7.78223 77.0618 7.44857 77.166 7.14258C77.2702 6.83333 77.4167 6.56478 77.6055 6.33691C77.7943 6.10905 78.0189 5.93327 78.2793 5.80957C78.543 5.68262 78.8343 5.61914 79.1533 5.61914C79.4137 5.61914 79.6481 5.65495 79.8564 5.72656C80.0648 5.79492 80.2422 5.9056 80.3887 6.05859C80.5384 6.21159 80.6523 6.41016 80.7305 6.6543C80.8086 6.89518 80.8477 7.18978 80.8477 7.53809V11H79.9395V7.52832C79.9395 7.25163 79.8988 7.03027 79.8174 6.86426C79.736 6.69499 79.6172 6.57292 79.4609 6.49805C79.3047 6.41992 79.1126 6.38086 78.8848 6.38086C78.6602 6.38086 78.4551 6.42806 78.2695 6.52246C78.0872 6.61686 77.9294 6.74707 77.7959 6.91309C77.6657 7.0791 77.5632 7.26953 77.4883 7.48438C77.4167 7.69596 77.3809 7.92057 77.3809 8.1582ZM85.335 10.0967V7.37695C85.335 7.16862 85.2926 6.98796 85.208 6.83496C85.1266 6.67871 85.0029 6.55827 84.8369 6.47363C84.6709 6.389 84.4658 6.34668 84.2217 6.34668C83.9938 6.34668 83.7936 6.38574 83.6211 6.46387C83.4518 6.54199 83.3184 6.64453 83.2207 6.77148C83.1263 6.89844 83.0791 7.03516 83.0791 7.18164H82.1758C82.1758 6.99284 82.2246 6.80566 82.3223 6.62012C82.4199 6.43457 82.5599 6.26693 82.7422 6.11719C82.9277 5.96419 83.1491 5.84375 83.4062 5.75586C83.6667 5.66471 83.9564 5.61914 84.2754 5.61914C84.6595 5.61914 84.998 5.68424 85.291 5.81445C85.5872 5.94466 85.8184 6.1416 85.9844 6.40527C86.1536 6.66569 86.2383 6.99284 86.2383 7.38672V9.84766C86.2383 10.0234 86.2529 10.2106 86.2822 10.4092C86.3148 10.6077 86.362 10.7786 86.4238 10.9219V11H85.4814C85.4359 10.8958 85.4001 10.7575 85.374 10.585C85.348 10.4092 85.335 10.2464 85.335 10.0967ZM85.4912 7.79688L85.501 8.43164H84.5879C84.3307 8.43164 84.1012 8.4528 83.8994 8.49512C83.6976 8.53418 83.5283 8.5944 83.3916 8.67578C83.2549 8.75716 83.1507 8.8597 83.0791 8.9834C83.0075 9.10384 82.9717 9.24544 82.9717 9.4082C82.9717 9.57422 83.0091 9.72559 83.084 9.8623C83.1589 9.99902 83.2712 10.1081 83.4209 10.1895C83.5739 10.2676 83.7611 10.3066 83.9824 10.3066C84.2591 10.3066 84.5033 10.248 84.7148 10.1309C84.9264 10.0137 85.0941 9.87044 85.2178 9.70117C85.3447 9.5319 85.4131 9.36751 85.4229 9.20801L85.8086 9.64258C85.7858 9.7793 85.724 9.93066 85.623 10.0967C85.5221 10.2627 85.387 10.4222 85.2178 10.5752C85.0518 10.7249 84.8532 10.8503 84.6221 10.9512C84.3942 11.0488 84.137 11.0977 83.8506 11.0977C83.4925 11.0977 83.1784 11.0277 82.9082 10.8877C82.6413 10.7477 82.4329 10.5605 82.2832 10.3262C82.1367 10.0885 82.0635 9.82324 82.0635 9.53027C82.0635 9.24707 82.1188 8.99805 82.2295 8.7832C82.3402 8.5651 82.4997 8.38444 82.708 8.24121C82.9163 8.09473 83.167 7.98405 83.46 7.90918C83.7529 7.83431 84.0801 7.79688 84.4414 7.79688H85.4912Z" fill="#10394F"/>
<path d="M8.95004 0.77002L5.54004 14.82H5.98004L9.39005 0.77002H8.95004Z" fill="#FFA20E"/>
<path d="M3.98032 0.77002L0.570312 14.82H1.01031L4.42032 0.77002H3.98032Z" fill="#FFA20E"/>
</svg>
