<svg width="45" height="45" viewBox="0 0 45 45" fill="none" xmlns="http://www.w3.org/2000/svg">
<path d="M22.4497 44.6099C34.7491 44.6099 44.7197 34.6392 44.7197 22.3398C44.7197 10.0405 34.7491 0.0698242 22.4497 0.0698242C10.1503 0.0698242 0.179688 10.0405 0.179688 22.3398C0.179688 34.6392 10.1503 44.6099 22.4497 44.6099Z" fill="#0391DF"/>
<path d="M19.9695 31.5897V23.4998C19.9695 23.3698 19.8595 23.2598 19.7295 23.2598H17.6295C17.4095 23.2598 17.2295 23.0797 17.2295 22.8597V19.9098C17.2295 19.6898 17.4095 19.5098 17.6295 19.5098H19.7295C19.8595 19.5098 19.9695 19.3998 19.9695 19.2698V15.8698C19.9695 14.1198 21.3895 12.6997 23.1395 12.6997H27.2695C27.4895 12.6997 27.6695 12.8797 27.6695 13.0997V15.5398C27.6695 15.7598 27.4895 15.9397 27.2695 15.9397H25.3795C24.6095 15.9397 23.9895 16.5597 23.9895 17.3297V19.2598C23.9895 19.3898 24.0995 19.4998 24.2295 19.4998H27.2695C27.4895 19.4998 27.6695 19.6798 27.6695 19.8998V22.8497C27.6695 23.0697 27.4895 23.2498 27.2695 23.2498H24.0195C23.8895 23.2498 23.7795 23.3597 23.7795 23.4897V31.5797C23.7795 31.7997 23.5995 31.9797 23.3795 31.9797H20.3795C20.1595 31.9897 19.9695 31.8097 19.9695 31.5897Z" fill="white"/>
</svg>
