<svg width="33" height="15" viewBox="0 0 33 15" fill="none" xmlns="http://www.w3.org/2000/svg">
<path d="M15.7676 3.89062V11H14.8252V3.89062H15.7676ZM18.7461 7.08887V7.86035H15.5625V7.08887H18.7461ZM19.2295 3.89062V4.66211H15.5625V3.89062H19.2295ZM22.1543 4.52051L19.8008 11H18.8389L21.5488 3.89062H22.1689L22.1543 4.52051ZM24.127 11L21.7686 4.52051L21.7539 3.89062H22.374L25.0938 11H24.127ZM24.0049 8.36816V9.13965H20.0107V8.36816H24.0049ZM29.6348 10.1846L31.4414 11.6152L30.8066 12.2012L29.0293 10.79L29.6348 10.1846ZM31.417 7.2207V7.66992C31.417 8.20378 31.3503 8.68229 31.2168 9.10547C31.0833 9.52865 30.8913 9.88835 30.6406 10.1846C30.39 10.4808 30.0889 10.707 29.7373 10.8633C29.389 11.0195 28.9984 11.0977 28.5654 11.0977C28.1455 11.0977 27.7598 11.0195 27.4082 10.8633C27.0599 10.707 26.7572 10.4808 26.5 10.1846C26.2461 9.88835 26.0492 9.52865 25.9092 9.10547C25.7692 8.68229 25.6992 8.20378 25.6992 7.66992V7.2207C25.6992 6.68685 25.7676 6.20996 25.9043 5.79004C26.0443 5.36686 26.2412 5.00716 26.4951 4.71094C26.749 4.41146 27.0501 4.18359 27.3984 4.02734C27.75 3.87109 28.1357 3.79297 28.5557 3.79297C28.9886 3.79297 29.3809 3.87109 29.7324 4.02734C30.084 4.18359 30.3851 4.41146 30.6357 4.71094C30.8864 5.00716 31.0785 5.36686 31.2119 5.79004C31.3486 6.20996 31.417 6.68685 31.417 7.2207ZM30.4844 7.66992V7.21094C30.4844 6.78776 30.4404 6.41341 30.3525 6.08789C30.2679 5.76237 30.1426 5.48893 29.9766 5.26758C29.8105 5.04622 29.6087 4.87858 29.3711 4.76465C29.1335 4.65072 28.8617 4.59375 28.5557 4.59375C28.266 4.59375 28.0023 4.65072 27.7646 4.76465C27.5303 4.87858 27.3285 5.04622 27.1592 5.26758C26.9899 5.48893 26.8597 5.76237 26.7686 6.08789C26.6774 6.41341 26.6318 6.78776 26.6318 7.21094V7.66992C26.6318 8.09635 26.6774 8.47396 26.7686 8.80273C26.8597 9.12826 26.9899 9.40332 27.1592 9.62793C27.3317 9.84928 27.5368 10.0169 27.7744 10.1309C28.012 10.2448 28.2757 10.3018 28.5654 10.3018C28.8714 10.3018 29.1432 10.2448 29.3809 10.1309C29.6185 10.0169 29.8187 9.84928 29.9814 9.62793C30.1475 9.40332 30.2728 9.12826 30.3574 8.80273C30.4421 8.47396 30.4844 8.09635 30.4844 7.66992Z" fill="#10394F"/>
<path d="M8.97934 0.77002L5.56934 14.82H6.00934L9.41934 0.77002H8.97934Z" fill="#FFA20E"/>
<path d="M4.00961 0.77002L0.599609 14.82H1.03961L4.44962 0.77002H4.00961Z" fill="#FFA20E"/>
</svg>
