<svg width="598" height="81" viewBox="0 0 598 81" fill="none" xmlns="http://www.w3.org/2000/svg">
<path d="M600.27 0.25H0.269531V80.25H600.27V0.25Z" fill="white"/>
<path d="M223.34 51.79V49.87H225.27V51.79H223.34ZM223.76 49.21L223.26 44.12V41.77H225.34V44.12L224.85 49.21H223.76ZM215.98 48.16C215.98 48.88 216.15 49.4301 216.49 49.8101C216.83 50.1901 217.25 50.38 217.75 50.38C218.25 50.38 218.67 50.1901 219.01 49.8101C219.35 49.4301 219.52 48.87 219.52 48.14C219.52 47.43 219.35 46.88 219.01 46.5C218.67 46.12 218.25 45.9301 217.75 45.9301C217.25 45.9301 216.83 46.12 216.49 46.5C216.15 46.88 215.98 47.44 215.98 48.16ZM214.01 48.0601C214.01 47.4201 214.17 46.8 214.48 46.21C214.79 45.62 215.24 45.16 215.81 44.84C216.39 44.53 217.03 44.37 217.74 44.37C218.84 44.37 219.74 44.7299 220.44 45.4399C221.14 46.1499 221.49 47.05 221.49 48.14C221.49 49.24 221.13 50.15 220.42 50.87C219.71 51.59 218.82 51.95 217.75 51.95C217.08 51.95 216.45 51.8 215.84 51.5C215.24 51.2 214.78 50.7601 214.47 50.1801C214.16 49.6001 214.01 48.8901 214.01 48.0601ZM210.84 51.79H208.92V44.53H210.7V45.5601C211.01 45.0701 211.28 44.75 211.52 44.6C211.77 44.45 212.04 44.37 212.35 44.37C212.79 44.37 213.21 44.49 213.61 44.73L213.02 46.4C212.7 46.19 212.4 46.09 212.12 46.09C211.85 46.09 211.62 46.1699 211.44 46.3199C211.25 46.4699 211.11 46.73 211 47.12C210.9 47.51 210.84 48.32 210.84 49.55V51.79ZM205.22 51.79V50.7C204.96 51.09 204.61 51.39 204.17 51.62C203.74 51.84 203.29 51.95 202.81 51.95C202.32 51.95 201.88 51.84 201.5 51.63C201.12 51.42 200.83 51.11 200.66 50.73C200.49 50.35 200.4 49.81 200.4 49.12V44.53H202.32V47.87C202.32 48.89 202.35 49.52 202.42 49.75C202.49 49.98 202.62 50.16 202.81 50.3C203 50.43 203.23 50.5 203.52 50.5C203.85 50.5 204.14 50.41 204.4 50.23C204.66 50.05 204.84 49.8201 204.93 49.5601C205.03 49.2901 205.07 48.64 205.07 47.6V44.54H206.99V51.8H205.22V51.79ZM199.1 44.53V46.0601H197.79V48.99C197.79 49.58 197.8 49.93 197.82 50.03C197.85 50.13 197.9 50.21 197.99 50.27C198.08 50.33 198.19 50.37 198.32 50.37C198.5 50.37 198.76 50.3099 199.09 50.1899L199.25 51.6801C198.8 51.8701 198.3 51.97 197.73 51.97C197.38 51.97 197.07 51.91 196.79 51.8C196.51 51.68 196.31 51.53 196.17 51.35C196.04 51.16 195.95 50.91 195.9 50.6C195.86 50.38 195.84 49.93 195.84 49.25V46.08H194.96V44.55H195.84V43.11L197.77 41.99V44.55H199.1V44.53ZM192 51.79V50.7C191.74 51.09 191.39 51.39 190.95 51.62C190.52 51.84 190.07 51.95 189.59 51.95C189.1 51.95 188.66 51.84 188.28 51.63C187.9 51.42 187.61 51.11 187.44 50.73C187.27 50.35 187.18 49.81 187.18 49.12V44.53H189.1V47.87C189.1 48.89 189.13 49.52 189.2 49.75C189.27 49.98 189.4 50.16 189.59 50.3C189.78 50.43 190.01 50.5 190.3 50.5C190.63 50.5 190.92 50.41 191.18 50.23C191.44 50.05 191.62 49.8201 191.71 49.5601C191.81 49.2901 191.85 48.64 191.85 47.6V44.54H193.77V51.8H192V51.79ZM181.71 44.53H182.78V43.98C182.78 43.37 182.84 42.91 182.97 42.61C183.1 42.31 183.34 42.07 183.69 41.88C184.04 41.69 184.48 41.59 185.02 41.59C185.57 41.59 186.1 41.67 186.63 41.84L186.37 43.1801C186.06 43.1101 185.77 43.0699 185.49 43.0699C185.21 43.0699 185.01 43.14 184.89 43.27C184.77 43.4 184.71 43.65 184.71 44.02V44.53H186.15V46.04H184.71V51.79H182.79V46.04H181.72V44.53H181.71ZM171.62 48.16C171.62 48.88 171.79 49.4301 172.13 49.8101C172.47 50.1901 172.89 50.38 173.39 50.38C173.89 50.38 174.31 50.1901 174.65 49.8101C174.99 49.4301 175.16 48.87 175.16 48.14C175.16 47.43 174.99 46.88 174.65 46.5C174.31 46.12 173.89 45.9301 173.39 45.9301C172.89 45.9301 172.47 46.12 172.13 46.5C171.79 46.88 171.62 47.44 171.62 48.16ZM169.66 48.0601C169.66 47.4201 169.82 46.8 170.13 46.21C170.44 45.62 170.89 45.16 171.46 44.84C172.04 44.53 172.68 44.37 173.39 44.37C174.49 44.37 175.39 44.7299 176.09 45.4399C176.79 46.1499 177.14 47.05 177.14 48.14C177.14 49.24 176.78 50.15 176.07 50.87C175.36 51.59 174.47 51.95 173.4 51.95C172.73 51.95 172.1 51.8 171.49 51.5C170.89 51.2 170.43 50.7601 170.12 50.1801C169.81 49.6001 169.66 48.8901 169.66 48.0601ZM162.42 48.3C162.17 48.38 161.78 48.48 161.25 48.59C160.72 48.7 160.37 48.82 160.2 48.92C159.95 49.1 159.82 49.32 159.82 49.6C159.82 49.87 159.92 50.1 160.12 50.3C160.32 50.5 160.58 50.59 160.89 50.59C161.24 50.59 161.57 50.48 161.88 50.25C162.11 50.08 162.27 49.86 162.34 49.61C162.39 49.45 162.42 49.13 162.42 48.67V48.3ZM159.85 46.74L158.11 46.4301C158.31 45.7301 158.64 45.21 159.12 44.87C159.6 44.53 160.31 44.36 161.25 44.36C162.11 44.36 162.74 44.46 163.16 44.67C163.58 44.87 163.87 45.1299 164.04 45.4399C164.21 45.7499 164.3 46.32 164.3 47.16L164.28 49.4C164.28 50.04 164.31 50.5099 164.37 50.8199C164.43 51.1199 164.55 51.44 164.72 51.79H162.82C162.77 51.66 162.71 51.47 162.64 51.22C162.61 51.11 162.59 51.03 162.57 50.99C162.24 51.31 161.89 51.55 161.52 51.71C161.15 51.87 160.75 51.95 160.32 51.95C159.57 51.95 158.98 51.75 158.55 51.34C158.12 50.93 157.91 50.42 157.91 49.8C157.91 49.39 158.01 49.03 158.2 48.71C158.4 48.39 158.67 48.14 159.02 47.97C159.38 47.8 159.89 47.65 160.55 47.52C161.45 47.35 162.07 47.19 162.42 47.05V46.86C162.42 46.49 162.33 46.2299 162.15 46.0699C161.97 45.9099 161.62 45.83 161.12 45.83C160.78 45.83 160.51 45.9 160.32 46.04C160.12 46.17 159.96 46.41 159.85 46.74ZM154.79 51.79H152.87V44.53H154.65V45.5601C154.96 45.0701 155.23 44.75 155.47 44.6C155.72 44.45 155.99 44.37 156.3 44.37C156.74 44.37 157.16 44.49 157.56 44.73L156.97 46.4C156.65 46.19 156.35 46.09 156.07 46.09C155.8 46.09 155.57 46.1699 155.39 46.3199C155.2 46.4699 155.06 46.73 154.95 47.12C154.85 47.51 154.79 48.32 154.79 49.55V51.79ZM149.17 48.3C148.92 48.38 148.53 48.48 148 48.59C147.47 48.7 147.12 48.82 146.95 48.92C146.7 49.1 146.57 49.32 146.57 49.6C146.57 49.87 146.67 50.1 146.87 50.3C147.07 50.5 147.33 50.59 147.64 50.59C147.99 50.59 148.32 50.48 148.63 50.25C148.86 50.08 149.02 49.86 149.09 49.61C149.14 49.45 149.17 49.13 149.17 48.67V48.3ZM146.6 46.74L144.86 46.4301C145.06 45.7301 145.39 45.21 145.87 44.87C146.35 44.53 147.06 44.36 148 44.36C148.86 44.36 149.49 44.46 149.91 44.67C150.33 44.87 150.62 45.1299 150.79 45.4399C150.96 45.7499 151.05 46.32 151.05 47.16L151.03 49.4C151.03 50.04 151.06 50.5099 151.12 50.8199C151.18 51.1199 151.3 51.44 151.47 51.79H149.57C149.52 51.66 149.46 51.47 149.39 51.22C149.36 51.11 149.34 51.03 149.32 50.99C148.99 51.31 148.64 51.55 148.27 51.71C147.9 51.87 147.5 51.95 147.07 51.95C146.32 51.95 145.73 51.75 145.3 51.34C144.87 50.93 144.66 50.42 144.66 49.8C144.66 49.39 144.76 49.03 144.95 48.71C145.15 48.39 145.42 48.14 145.77 47.97C146.13 47.8 146.64 47.65 147.3 47.52C148.2 47.35 148.82 47.19 149.17 47.05V46.86C149.17 46.49 149.08 46.2299 148.9 46.0699C148.72 45.9099 148.37 45.83 147.87 45.83C147.53 45.83 147.26 45.9 147.07 46.04C146.87 46.17 146.72 46.41 146.6 46.74ZM138.45 48.04C138.45 48.86 138.61 49.46 138.94 49.85C139.26 50.24 139.66 50.4301 140.12 50.4301C140.57 50.4301 140.94 50.25 141.23 49.9C141.53 49.54 141.67 48.95 141.67 48.14C141.67 47.38 141.52 46.8099 141.21 46.4399C140.9 46.0699 140.53 45.89 140.08 45.89C139.61 45.89 139.22 46.0699 138.91 46.4399C138.6 46.7899 138.45 47.33 138.45 48.04ZM136.55 44.53H138.34V45.6C138.57 45.24 138.89 44.94 139.28 44.71C139.67 44.48 140.12 44.37 140.6 44.37C141.44 44.37 142.16 44.7 142.75 45.36C143.34 46.02 143.63 46.94 143.63 48.12C143.63 49.33 143.33 50.28 142.74 50.95C142.15 51.62 141.43 51.95 140.59 51.95C140.19 51.95 139.82 51.87 139.5 51.71C139.18 51.55 138.83 51.28 138.47 50.89V54.55H136.55V44.53ZM125.67 48.16C125.67 48.88 125.84 49.4301 126.18 49.8101C126.52 50.1901 126.94 50.38 127.44 50.38C127.94 50.38 128.36 50.1901 128.7 49.8101C129.04 49.4301 129.21 48.87 129.21 48.14C129.21 47.43 129.04 46.88 128.7 46.5C128.36 46.12 127.94 45.9301 127.44 45.9301C126.94 45.9301 126.52 46.12 126.18 46.5C125.84 46.88 125.67 47.44 125.67 48.16ZM123.7 48.0601C123.7 47.4201 123.86 46.8 124.17 46.21C124.48 45.62 124.93 45.16 125.5 44.84C126.08 44.53 126.72 44.37 127.43 44.37C128.53 44.37 129.43 44.7299 130.13 45.4399C130.83 46.1499 131.18 47.05 131.18 48.14C131.18 49.24 130.82 50.15 130.11 50.87C129.4 51.59 128.51 51.95 127.44 51.95C126.77 51.95 126.14 51.8 125.53 51.5C124.93 51.2 124.47 50.7601 124.16 50.1801C123.86 49.6001 123.7 48.8901 123.7 48.0601ZM120.25 51.79V44.53H122.17V51.79H120.25ZM120.25 43.54V41.76H122.17V43.54H120.25ZM118.79 46.6801L116.9 47.02C116.84 46.64 116.69 46.36 116.46 46.17C116.24 45.98 115.95 45.88 115.58 45.88C115.1 45.88 114.72 46.05 114.43 46.38C114.15 46.71 114.01 47.26 114.01 48.03C114.01 48.89 114.15 49.5 114.44 49.86C114.73 50.22 115.12 50.39 115.61 50.39C115.97 50.39 116.27 50.29 116.51 50.08C116.74 49.87 116.91 49.51 117 49.01L118.89 49.33C118.69 50.2 118.32 50.85 117.76 51.29C117.2 51.73 116.46 51.95 115.52 51.95C114.46 51.95 113.61 51.62 112.98 50.95C112.35 50.28 112.04 49.35 112.04 48.17C112.04 46.97 112.36 46.04 112.99 45.37C113.62 44.7 114.48 44.37 115.56 44.37C116.44 44.37 117.15 44.5599 117.67 44.9399C118.19 45.3199 118.56 45.9001 118.79 46.6801ZM106.23 43.64L107.17 41.6H109.32L107.44 43.64H106.23ZM105.43 48.16C105.43 48.88 105.6 49.4301 105.94 49.8101C106.28 50.1901 106.7 50.38 107.2 50.38C107.7 50.38 108.12 50.1901 108.46 49.8101C108.8 49.4301 108.97 48.87 108.97 48.14C108.97 47.43 108.8 46.88 108.46 46.5C108.12 46.12 107.7 45.9301 107.2 45.9301C106.7 45.9301 106.28 46.12 105.94 46.5C105.6 46.88 105.43 47.44 105.43 48.16ZM103.46 48.0601C103.46 47.4201 103.62 46.8 103.93 46.21C104.24 45.62 104.69 45.16 105.26 44.84C105.84 44.53 106.48 44.37 107.19 44.37C108.29 44.37 109.19 44.7299 109.89 45.4399C110.59 46.1499 110.94 47.05 110.94 48.14C110.94 49.24 110.58 50.15 109.87 50.87C109.16 51.59 108.27 51.95 107.2 51.95C106.53 51.95 105.9 51.8 105.29 51.5C104.69 51.2 104.23 50.7601 103.92 50.1801C103.61 49.6001 103.46 48.8901 103.46 48.0601ZM96.8798 48.01C96.8798 48.78 97.0298 49.35 97.3198 49.71C97.6198 50.07 97.9898 50.24 98.4298 50.24C98.8998 50.24 99.2998 50.0599 99.6198 49.6899C99.9398 49.3199 100.11 48.7801 100.11 48.0601C100.11 47.3101 99.9598 46.75 99.6498 46.39C99.3398 46.03 98.9498 45.84 98.4698 45.84C98.0098 45.84 97.6298 46.02 97.3298 46.38C97.0298 46.73 96.8798 47.28 96.8798 48.01ZM95.1598 52.27L97.3498 52.54C97.3898 52.8 97.4698 52.9699 97.5998 53.0699C97.7798 53.2099 98.0698 53.28 98.4598 53.28C98.9598 53.28 99.3398 53.2 99.5898 53.05C99.7598 52.95 99.8898 52.7901 99.9698 52.5601C100.03 52.4001 100.06 52.1101 100.06 51.6801V50.62C99.4898 51.4 98.7598 51.8 97.8898 51.8C96.9098 51.8 96.1398 51.3901 95.5698 50.5601C95.1198 49.9101 94.8998 49.1 94.8998 48.13C94.8998 46.91 95.1898 45.98 95.7798 45.34C96.3698 44.7 97.0998 44.38 97.9698 44.38C98.8698 44.38 99.6098 44.7701 100.19 45.5601V44.54H101.99V51.05C101.99 51.91 101.92 52.55 101.78 52.97C101.64 53.39 101.44 53.73 101.19 53.97C100.93 54.21 100.59 54.4 100.16 54.54C99.7398 54.68 99.1998 54.75 98.5498 54.75C97.3198 54.75 96.4498 54.54 95.9298 54.11C95.4198 53.69 95.1598 53.16 95.1598 52.51C95.1598 52.44 95.1598 52.36 95.1598 52.27ZM91.8598 47.54C91.8498 46.98 91.6998 46.56 91.4298 46.28C91.1598 45.99 90.8198 45.84 90.4298 45.84C90.0098 45.84 89.6598 45.99 89.3898 46.3C89.1198 46.61 88.9798 47.02 88.9898 47.54H91.8598ZM91.7498 49.48L93.6598 49.8C93.4098 50.5 93.0198 51.04 92.4898 51.41C91.9598 51.77 91.2998 51.96 90.4998 51.96C89.2398 51.96 88.2998 51.55 87.6998 50.72C87.2198 50.06 86.9798 49.23 86.9798 48.22C86.9798 47.02 87.2898 46.08 87.9198 45.4C88.5498 44.72 89.3398 44.37 90.3098 44.37C91.3898 44.37 92.2398 44.7299 92.8698 45.4399C93.4898 46.1499 93.7898 47.24 93.7698 48.71H88.9598C88.9698 49.28 89.1298 49.72 89.4198 50.04C89.7198 50.35 90.0898 50.51 90.5298 50.51C90.8298 50.51 91.0798 50.43 91.2898 50.26C91.4998 50.09 91.6498 49.84 91.7498 49.48ZM85.5898 51.79H83.6698V48.08C83.6698 47.3 83.6298 46.7901 83.5498 46.5601C83.4698 46.3301 83.3298 46.15 83.1498 46.02C82.9698 45.89 82.7498 45.83 82.4898 45.83C82.1598 45.83 81.8598 45.92 81.5898 46.1C81.3298 46.28 81.1398 46.5199 81.0398 46.8199C80.9398 47.1199 80.8998 47.68 80.8998 48.49V51.78H78.9798V44.52H80.7598V45.59C81.3898 44.77 82.1898 44.36 83.1498 44.36C83.5698 44.36 83.9598 44.44 84.3098 44.59C84.6598 44.74 84.9298 44.93 85.0998 45.17C85.2798 45.41 85.4098 45.68 85.4798 45.98C85.5498 46.28 85.5898 46.71 85.5898 47.27V51.79ZM71.3098 51.79V50.7C71.0498 51.09 70.6998 51.39 70.2598 51.62C69.8298 51.84 69.3798 51.95 68.8998 51.95C68.4098 51.95 67.9698 51.84 67.5898 51.63C67.1998 51.42 66.9198 51.11 66.7498 50.73C66.5798 50.34 66.4898 49.81 66.4898 49.12V44.53H68.4098V47.87C68.4098 48.89 68.4398 49.52 68.5098 49.75C68.5798 49.98 68.7098 50.16 68.8998 50.3C69.0898 50.43 69.3198 50.5 69.6098 50.5C69.9398 50.5 70.2298 50.41 70.4898 50.23C70.7498 50.05 70.9298 49.8201 71.0198 49.5601C71.1198 49.2901 71.1598 48.64 71.1598 47.6V44.54H73.0798V51.8H71.3098V51.79ZM63.0598 47.54C63.0498 46.98 62.8998 46.56 62.6298 46.28C62.3598 45.99 62.0198 45.84 61.6298 45.84C61.2098 45.84 60.8598 45.99 60.5898 46.3C60.3198 46.61 60.1798 47.02 60.1898 47.54H63.0598ZM62.9498 49.48L64.8598 49.8C64.6098 50.5 64.2198 51.04 63.6898 51.41C63.1598 51.77 62.4998 51.96 61.6998 51.96C60.4398 51.96 59.4998 51.55 58.8998 50.72C58.4198 50.06 58.1798 49.23 58.1798 48.22C58.1798 47.02 58.4898 46.08 59.1198 45.4C59.7498 44.72 60.5398 44.37 61.5098 44.37C62.5898 44.37 63.4398 44.7299 64.0698 45.4399C64.6898 46.1499 64.9898 47.24 64.9698 48.71H60.1598C60.1698 49.28 60.3298 49.72 60.6198 50.04C60.9198 50.35 61.2898 50.51 61.7298 50.51C62.0298 50.51 62.2798 50.43 62.4898 50.26C62.6998 50.09 62.8398 49.84 62.9498 49.48ZM50.2698 49.72L52.1998 49.4301C52.2798 49.8001 52.4498 50.09 52.6998 50.28C52.9498 50.47 53.2998 50.5699 53.7498 50.5699C54.2498 50.5699 54.6198 50.48 54.8698 50.3C55.0398 50.17 55.1198 50 55.1198 49.79C55.1198 49.64 55.0698 49.5201 54.9798 49.4301C54.8798 49.3401 54.6698 49.2501 54.3398 49.1801C52.7898 48.8401 51.8098 48.53 51.3898 48.24C50.8198 47.85 50.5298 47.3 50.5298 46.61C50.5298 45.98 50.7798 45.45 51.2798 45.02C51.7798 44.59 52.5498 44.38 53.5898 44.38C54.5798 44.38 55.3198 44.54 55.7998 44.87C56.2798 45.19 56.6198 45.6701 56.7998 46.3101L54.9898 46.64C54.9098 46.36 54.7598 46.14 54.5498 45.99C54.3398 45.84 54.0298 45.76 53.6298 45.76C53.1198 45.76 52.7598 45.83 52.5398 45.97C52.3898 46.07 52.3198 46.2 52.3198 46.36C52.3198 46.5 52.3798 46.61 52.5098 46.71C52.6798 46.84 53.2798 47.02 54.2998 47.25C55.3298 47.48 56.0398 47.77 56.4498 48.1C56.8498 48.44 57.0498 48.92 57.0498 49.53C57.0498 50.2 56.7698 50.77 56.2198 51.25C55.6598 51.73 54.8398 51.97 53.7498 51.97C52.7598 51.97 51.9798 51.77 51.3998 51.37C50.8298 50.95 50.4498 50.41 50.2698 49.72ZM40.0198 48.16C40.0198 48.88 40.1898 49.4301 40.5298 49.8101C40.8698 50.1901 41.2898 50.38 41.7898 50.38C42.2898 50.38 42.7098 50.1901 43.0498 49.8101C43.3898 49.4301 43.5598 48.87 43.5598 48.14C43.5598 47.43 43.3898 46.88 43.0498 46.5C42.7098 46.12 42.2898 45.9301 41.7898 45.9301C41.2898 45.9301 40.8698 46.12 40.5298 46.5C40.1898 46.89 40.0198 47.44 40.0198 48.16ZM38.0498 48.0601C38.0498 47.4201 38.2098 46.8 38.5198 46.21C38.8298 45.61 39.2798 45.16 39.8498 44.84C40.4298 44.53 41.0698 44.37 41.7798 44.37C42.8798 44.37 43.7798 44.7299 44.4798 45.4399C45.1798 46.1499 45.5298 47.05 45.5298 48.14C45.5298 49.24 45.1698 50.15 44.4598 50.87C43.7498 51.59 42.8598 51.95 41.7898 51.95C41.1198 51.95 40.4898 51.8 39.8798 51.5C39.2798 51.2 38.8198 50.7601 38.5098 50.1801C38.2098 49.6001 38.0498 48.8901 38.0498 48.0601ZM131.1 32.16C131.1 32.88 131.27 33.4301 131.61 33.8101C131.95 34.1901 132.37 34.38 132.87 34.38C133.37 34.38 133.79 34.1901 134.13 33.8101C134.47 33.4301 134.64 32.87 134.64 32.14C134.64 31.43 134.47 30.88 134.13 30.5C133.79 30.12 133.37 29.9301 132.87 29.9301C132.37 29.9301 131.95 30.12 131.61 30.5C131.27 30.88 131.1 31.44 131.1 32.16ZM129.13 32.0601C129.13 31.4201 129.29 30.8 129.6 30.21C129.91 29.62 130.36 29.16 130.93 28.84C131.51 28.53 132.15 28.37 132.86 28.37C133.96 28.37 134.86 28.7299 135.56 29.4399C136.26 30.1499 136.61 31.05 136.61 32.14C136.61 33.24 136.25 34.15 135.54 34.87C134.83 35.59 133.94 35.95 132.87 35.95C132.2 35.95 131.57 35.8 130.96 35.5C130.36 35.2 129.9 34.7601 129.59 34.1801C129.29 33.6001 129.13 32.8901 129.13 32.0601ZM122.55 32C122.55 32.77 122.66 33.3401 122.87 33.6801C123.18 34.1801 123.61 34.4301 124.17 34.4301C124.61 34.4301 124.99 34.24 125.3 33.87C125.61 33.49 125.76 32.9301 125.76 32.1801C125.76 31.3501 125.61 30.75 125.31 30.38C125.01 30.01 124.62 29.83 124.15 29.83C123.69 29.83 123.31 30.01 123 30.38C122.7 30.74 122.55 31.28 122.55 32ZM127.68 35.79H125.9V34.72C125.6 35.13 125.25 35.44 124.85 35.65C124.45 35.85 124.04 35.95 123.63 35.95C122.8 35.95 122.08 35.62 121.48 34.95C120.89 34.28 120.59 33.34 120.59 32.13C120.59 30.9 120.88 29.97 121.46 29.33C122.04 28.69 122.77 28.37 123.65 28.37C124.46 28.37 125.16 28.71 125.76 29.38V25.77H127.68V35.79ZM119.06 35.79H117.14V32.08C117.14 31.3 117.1 30.7901 117.02 30.5601C116.94 30.3301 116.8 30.15 116.62 30.02C116.44 29.89 116.22 29.83 115.96 29.83C115.63 29.83 115.33 29.92 115.06 30.1C114.79 30.28 114.61 30.5199 114.51 30.8199C114.41 31.1199 114.37 31.68 114.37 32.49V35.78H112.45V28.52H114.23V29.59C114.86 28.77 115.66 28.36 116.62 28.36C117.04 28.36 117.43 28.44 117.78 28.59C118.13 28.74 118.4 28.93 118.57 29.17C118.75 29.41 118.88 29.68 118.95 29.98C119.02 30.28 119.06 30.71 119.06 31.27V35.79ZM108.67 32.3C108.42 32.38 108.03 32.48 107.5 32.59C106.97 32.7 106.62 32.82 106.45 32.92C106.2 33.1 106.07 33.32 106.07 33.6C106.07 33.87 106.17 34.1 106.37 34.3C106.57 34.5 106.83 34.59 107.14 34.59C107.49 34.59 107.82 34.48 108.13 34.25C108.36 34.08 108.52 33.86 108.59 33.61C108.64 33.45 108.67 33.13 108.67 32.67V32.3ZM106.1 30.74L104.36 30.4301C104.56 29.7301 104.89 29.21 105.37 28.87C105.85 28.53 106.56 28.36 107.5 28.36C108.36 28.36 108.99 28.46 109.41 28.67C109.83 28.87 110.12 29.1299 110.29 29.4399C110.46 29.7499 110.55 30.32 110.55 31.16L110.53 33.4C110.53 34.04 110.56 34.5099 110.62 34.8199C110.68 35.1199 110.8 35.44 110.97 35.79H109.07C109.02 35.66 108.96 35.47 108.89 35.22C108.86 35.11 108.84 35.03 108.82 34.99C108.49 35.31 108.14 35.55 107.77 35.71C107.4 35.87 107 35.95 106.57 35.95C105.82 35.95 105.23 35.75 104.8 35.34C104.37 34.93 104.16 34.42 104.16 33.8C104.16 33.39 104.26 33.03 104.45 32.71C104.65 32.39 104.92 32.14 105.27 31.97C105.63 31.8 106.14 31.65 106.8 31.52C107.7 31.35 108.32 31.19 108.67 31.05V30.86C108.67 30.49 108.58 30.2299 108.4 30.0699C108.22 29.9099 107.87 29.83 107.37 29.83C107.03 29.83 106.76 29.9 106.57 30.04C106.38 30.17 106.22 30.41 106.1 30.74ZM102.71 35.79H100.79V32.08C100.79 31.3 100.75 30.7901 100.67 30.5601C100.59 30.3301 100.45 30.15 100.27 30.02C100.09 29.89 99.8698 29.83 99.6098 29.83C99.2798 29.83 98.9798 29.92 98.7098 30.1C98.4498 30.28 98.2598 30.5199 98.1598 30.8199C98.0598 31.1199 98.0198 31.68 98.0198 32.49V35.78H96.0998V28.52H97.8798V29.59C98.5098 28.77 99.3098 28.36 100.27 28.36C100.69 28.36 101.08 28.44 101.43 28.59C101.78 28.74 102.05 28.93 102.22 29.17C102.4 29.41 102.53 29.68 102.6 29.98C102.67 30.28 102.71 30.71 102.71 31.27V35.79ZM89.0698 32.16C89.0698 32.88 89.2398 33.4301 89.5798 33.8101C89.9198 34.1901 90.3398 34.38 90.8398 34.38C91.3398 34.38 91.7598 34.1901 92.0998 33.8101C92.4398 33.4301 92.6098 32.87 92.6098 32.14C92.6098 31.43 92.4398 30.88 92.0998 30.5C91.7598 30.12 91.3398 29.9301 90.8398 29.9301C90.3398 29.9301 89.9198 30.12 89.5798 30.5C89.2398 30.88 89.0698 31.44 89.0698 32.16ZM87.0998 32.0601C87.0998 31.4201 87.2598 30.8 87.5698 30.21C87.8798 29.62 88.3298 29.16 88.8998 28.84C89.4798 28.53 90.1198 28.37 90.8298 28.37C91.9298 28.37 92.8298 28.7299 93.5298 29.4399C94.2298 30.1499 94.5798 31.05 94.5798 32.14C94.5798 33.24 94.2198 34.15 93.5098 34.87C92.7998 35.59 91.9098 35.95 90.8398 35.95C90.1698 35.95 89.5398 35.8 88.9298 35.5C88.3298 35.2 87.8698 34.7601 87.5598 34.1801C87.2598 33.6001 87.0998 32.8901 87.0998 32.0601ZM83.6498 35.79V28.53H85.5698V35.79H83.6498ZM83.6498 27.54V25.76H85.5698V27.54H83.6498ZM75.1798 33.72L77.1098 33.4301C77.1898 33.8001 77.3598 34.09 77.6098 34.28C77.8598 34.47 78.2098 34.5699 78.6598 34.5699C79.1598 34.5699 79.5298 34.48 79.7798 34.3C79.9498 34.17 80.0298 34 80.0298 33.79C80.0298 33.64 79.9798 33.5201 79.8898 33.4301C79.7898 33.3401 79.5798 33.2501 79.2498 33.1801C77.6998 32.8401 76.7198 32.53 76.2998 32.24C75.7298 31.85 75.4398 31.3 75.4398 30.61C75.4398 29.98 75.6898 29.45 76.1898 29.02C76.6898 28.59 77.4598 28.38 78.4998 28.38C79.4898 28.38 80.2298 28.54 80.7098 28.87C81.1898 29.19 81.5298 29.6701 81.7098 30.3101L79.8998 30.64C79.8198 30.36 79.6698 30.14 79.4598 29.99C79.2498 29.84 78.9398 29.76 78.5398 29.76C78.0298 29.76 77.6698 29.83 77.4498 29.97C77.2998 30.07 77.2298 30.2 77.2298 30.36C77.2298 30.5 77.2898 30.61 77.4198 30.71C77.5898 30.84 78.1898 31.02 79.2098 31.25C80.2398 31.48 80.9498 31.77 81.3598 32.1C81.7598 32.44 81.9598 32.92 81.9598 33.53C81.9598 34.2 81.6798 34.77 81.1298 35.25C80.5698 35.73 79.7498 35.97 78.6598 35.97C77.6698 35.97 76.8898 35.77 76.3098 35.37C75.7398 34.95 75.3598 34.41 75.1798 33.72ZM71.9598 35.79V25.77H73.8798V35.79H71.9598ZM68.1798 35.79V34.7C67.9198 35.09 67.5698 35.39 67.1298 35.62C66.6998 35.84 66.2498 35.95 65.7698 35.95C65.2798 35.95 64.8398 35.84 64.4598 35.63C64.0698 35.42 63.7898 35.11 63.6198 34.73C63.4498 34.34 63.3598 33.81 63.3598 33.12V28.53H65.2798V31.87C65.2798 32.89 65.3098 33.52 65.3798 33.75C65.4498 33.98 65.5798 34.16 65.7698 34.3C65.9598 34.43 66.1898 34.5 66.4798 34.5C66.8098 34.5 67.0998 34.41 67.3598 34.23C67.6198 34.05 67.7998 33.8201 67.8898 33.5601C67.9898 33.2901 68.0298 32.64 68.0298 31.6V28.54H69.9498V35.8H68.1798V35.79ZM56.6898 32.04C56.6898 32.86 56.8498 33.46 57.1798 33.85C57.4998 34.24 57.8998 34.4301 58.3598 34.4301C58.8098 34.4301 59.1798 34.25 59.4698 33.9C59.7698 33.54 59.9098 32.95 59.9098 32.14C59.9098 31.38 59.7598 30.8099 59.4498 30.4399C59.1398 30.0699 58.7698 29.89 58.3198 29.89C57.8498 29.89 57.4598 30.0699 57.1498 30.4399C56.8498 30.7899 56.6898 31.33 56.6898 32.04ZM54.7898 28.53H56.5798V29.6C56.8098 29.24 57.1298 28.94 57.5198 28.71C57.9098 28.48 58.3598 28.37 58.8398 28.37C59.6798 28.37 60.3998 28.7 60.9898 29.36C61.5798 30.02 61.8698 30.94 61.8698 32.12C61.8698 33.33 61.5698 34.28 60.9798 34.95C60.3898 35.62 59.6698 35.95 58.8298 35.95C58.4298 35.95 58.0598 35.87 57.7398 35.71C57.4198 35.55 57.0698 35.28 56.7098 34.89V38.55H54.7898V28.53ZM42.2498 28.53H44.0198V29.52C44.6498 28.75 45.4098 28.36 46.2798 28.36C46.7398 28.36 47.1498 28.46 47.4898 28.65C47.8298 28.84 48.1098 29.13 48.3298 29.52C48.6498 29.13 48.9898 28.84 49.3598 28.65C49.7298 28.46 50.1198 28.36 50.5398 28.36C51.0698 28.36 51.5198 28.4699 51.8898 28.6899C52.2598 28.8999 52.5298 29.22 52.7198 29.64C52.8498 29.95 52.9198 30.45 52.9198 31.14V35.78H50.9998V31.63C50.9998 30.91 50.9298 30.45 50.7998 30.24C50.6198 29.97 50.3498 29.83 49.9798 29.83C49.7098 29.83 49.4598 29.91 49.2198 30.08C48.9798 30.24 48.8098 30.49 48.7098 30.8C48.6098 31.11 48.5498 31.61 48.5498 32.3V35.79H46.6298V31.8101C46.6298 31.1001 46.5998 30.6499 46.5298 30.4399C46.4598 30.2299 46.3498 30.08 46.2098 29.98C46.0698 29.88 45.8798 29.83 45.6298 29.83C45.3298 29.83 45.0698 29.9099 44.8298 30.0699C44.5898 30.2299 44.4198 30.46 44.3198 30.76C44.2198 31.06 44.1698 31.56 44.1698 32.26V35.79H42.2498V28.53ZM38.4498 35.79V25.77H40.4698V35.79H38.4498Z" fill="#00213A"/>
<path d="M541.951 24.37C542.321 24.73 542.551 25.23 542.551 25.78C542.551 26.87 541.671 27.75 540.581 27.75H536.051V21.25H540.501C541.551 21.25 542.391 22.1 542.391 23.15C542.391 23.62 542.221 24.04 541.951 24.37ZM537.591 26.37H540.381C540.721 26.37 541.001 26.09 541.001 25.75C541.001 25.41 540.721 25.13 540.381 25.13H537.591V26.37ZM537.591 23.73H540.301C540.601 23.73 540.841 23.4899 540.841 23.1899C540.841 22.8899 540.601 22.65 540.301 22.65H537.591V23.73Z" fill="#00213A"/>
<path d="M538.99 30.66L537.85 33.02H540.13L538.99 30.66ZM542.99 35.5H541.33L540.81 34.42H537.17L536.65 35.5H534.99L538.24 29H539.75L542.99 35.5Z" fill="#00213A"/>
<path d="M541.19 36.8901H543.06L539.76 41.1301V43.4001H538.21V41.1301L534.92 36.8901H536.78L538.99 39.8501L541.19 36.8901Z" fill="#00213A"/>
<path d="M549.811 36.8901V38.2902H545.481V39.3701H549.661V40.7601H545.481V42.0001H549.811V43.4001H543.931V36.8901H549.811Z" fill="#00213A"/>
<path d="M555.681 38.2899H553.431V39.5299H555.681C556.021 39.5299 556.291 39.2499 556.291 38.9099C556.301 38.5699 556.021 38.2899 555.681 38.2899ZM554.601 40.9199H553.441V43.3999H551.891V36.8999H555.841C556.951 36.8999 557.851 37.7999 557.851 38.9099C557.851 39.8299 557.241 40.5998 556.411 40.8398L558.321 43.3899H556.461L554.601 40.9199Z" fill="#00213A"/>
<path d="M531.631 38.5599L530.491 40.9199H532.771L531.631 38.5599ZM535.641 43.3999H533.981L533.461 42.3198H529.821L529.301 43.3999H527.641L530.891 36.8999H532.401L535.641 43.3999Z" fill="#00213A"/>
<path d="M526.171 40.0101C526.541 40.3701 526.771 40.8702 526.771 41.4202C526.771 42.5102 525.891 43.3901 524.801 43.3901H520.271V36.8901H524.721C525.771 36.8901 526.611 37.7402 526.611 38.7902C526.621 39.2602 526.451 39.6801 526.171 40.0101ZM521.82 42.0101H524.611C524.951 42.0101 525.231 41.7301 525.231 41.3901C525.231 41.0501 524.951 40.7701 524.611 40.7701H521.82V42.0101ZM521.82 39.3801H524.531C524.831 39.3801 525.07 39.1401 525.07 38.8401C525.07 38.5401 524.831 38.3002 524.531 38.3002H521.82V39.3801Z" fill="#00213A"/>
<path d="M541.931 44.79V46.1801H537.591V47.26H541.771V48.66H537.591V49.9H541.931V51.29H536.051V44.79H541.931Z" fill="#00213A"/>
<path d="M536.051 59.3398V52.8398H540.391C541.501 52.8498 542.391 53.7499 542.391 54.8599C542.391 55.6999 541.871 56.4199 541.141 56.7299L543.091 59.3499H541.231L539.371 56.8699H537.591V59.3499H536.051V59.3398ZM540.841 54.8499C540.841 54.5099 540.571 54.2299 540.231 54.2299H537.601V55.4698H540.231C540.571 55.4598 540.841 55.1899 540.841 54.8499Z" fill="#00213A"/>
<path d="M562.44 38.8C561.69 26.5 551.48 16.76 538.99 16.76C526.5 16.76 516.29 26.5 515.54 38.8C515.57 39.29 515.61 39.78 515.67 40.27C516.18 44.36 517.74 48.12 520.07 51.29C524.35 57.09 531.23 60.85 538.99 60.85C528.13 60.85 519.2 52.39 518.45 41.72C518.42 41.24 518.4 40.75 518.4 40.26C518.4 39.77 518.42 39.28 518.45 38.8C519.2 28.12 528.12 19.67 538.99 19.67C546.75 19.67 553.63 23.43 557.91 29.24C560.24 32.4 561.8 36.18 562.31 40.27C562.37 40.75 562.42 41.23 562.44 41.71C562.47 41.23 562.49 40.74 562.49 40.25C562.49 39.76 562.47 39.28 562.44 38.8Z" fill="#A2C223"/>
<path d="M515.54 41.7101C516.29 54.0101 526.5 63.7501 538.99 63.7501C551.48 63.7501 561.69 54.0101 562.44 41.7101C562.41 41.2201 562.37 40.7301 562.31 40.2401C561.8 36.1501 560.24 32.3801 557.91 29.2201C553.63 23.4201 546.75 19.6602 538.99 19.6602C549.85 19.6602 558.78 28.1202 559.53 38.7902C559.56 39.2702 559.58 39.7601 559.58 40.2501C559.58 40.7401 559.56 41.2201 559.53 41.7101C558.78 52.3901 549.86 60.8401 538.99 60.8401C531.23 60.8401 524.35 57.0802 520.07 51.2802C517.74 48.1102 516.18 44.3401 515.67 40.2401C515.61 39.7601 515.56 39.2802 515.54 38.7902C515.51 39.2702 515.49 39.7601 515.49 40.2501C515.49 40.7401 515.51 41.2301 515.54 41.7101Z" fill="#00B2ED"/>
</svg>
