<svg width="45" height="45" viewBox="0 0 45 45" fill="none" xmlns="http://www.w3.org/2000/svg">
<path d="M22.3403 44.6099C34.6397 44.6099 44.6103 34.6392 44.6103 22.3398C44.6103 10.0405 34.6397 0.0698242 22.3403 0.0698242C10.041 0.0698242 0.0703125 10.0405 0.0703125 22.3398C0.0703125 34.6392 10.041 44.6099 22.3403 44.6099Z" fill="#0391DF"/>
<path d="M27.1807 31.01H17.5007C15.3907 31.01 13.6807 29.2999 13.6807 27.1899V17.51C13.6807 15.4 15.3907 13.6899 17.5007 13.6899H27.1807C29.2907 13.6899 31.0007 15.4 31.0007 17.51V27.1899C31.0007 29.2899 29.2907 31.01 27.1807 31.01ZM17.5007 15.08C16.1607 15.08 15.0807 16.17 15.0807 17.5V27.1801C15.0807 28.5201 16.1707 29.6 17.5007 29.6H27.1807C28.5207 29.6 29.6006 28.5101 29.6006 27.1801V17.5C29.6006 16.16 28.5107 15.08 27.1807 15.08H17.5007Z" fill="#F2F2ED"/>
<path d="M22.3411 27.1001C19.7211 27.1001 17.5811 24.9701 17.5811 22.3401C17.5811 19.7201 19.7111 17.5801 22.3411 17.5801C24.9711 17.5801 27.101 19.7101 27.101 22.3401C27.091 24.9601 24.9611 27.1001 22.3411 27.1001ZM22.3411 18.9901C20.4911 18.9901 18.981 20.5001 18.981 22.3501C18.981 24.2001 20.4811 25.7101 22.3411 25.7101C24.2011 25.7101 25.701 24.2101 25.701 22.3501C25.701 20.4901 24.1911 18.9901 22.3411 18.9901Z" fill="#F2F2ED"/>
<path d="M27.2611 18.5601C27.8907 18.5601 28.4011 18.0496 28.4011 17.42C28.4011 16.7904 27.8907 16.28 27.2611 16.28C26.6315 16.28 26.1211 16.7904 26.1211 17.42C26.1211 18.0496 26.6315 18.5601 27.2611 18.5601Z" fill="#F2F2ED"/>
</svg>
