<svg width="117" height="39" viewBox="0 0 117 39" fill="none" xmlns="http://www.w3.org/2000/svg">
<path d="M93.1898 38.2101C90.9798 38.2001 88.7798 38.2001 86.5698 38.1901C86.1898 38.1901 85.8098 38.2001 85.4298 38.2101C83.2498 38.2101 81.0798 38.2001 78.8998 38.2001C72.4198 38.2001 65.9298 38.2001 59.4498 38.2001C50.4198 38.2001 41.3898 38.2001 32.3598 38.2001C24.0698 38.2001 15.7798 38.1901 7.48983 38.1901C7.00983 38.1901 6.52983 38.1501 6.04983 38.1301C5.13983 37.9801 4.27982 37.69 3.47982 37.23C3.45982 37.23 3.43983 37.23 3.42983 37.23C3.35983 37.21 3.29983 37.1701 3.23983 37.1301C2.11983 36.3501 1.42983 35.2701 1.07983 33.9601C0.779828 32.4301 0.71983 30.8801 0.79983 29.3301C0.80983 29.2301 0.809816 29.1301 0.879816 29.0601C0.879816 27.0201 0.889826 24.9801 0.889826 22.9401C0.889826 17.7901 0.869816 12.63 0.879816 7.48004C0.879816 5.95004 1.08983 4.46003 1.98983 3.16003C2.07983 3.03003 2.12984 2.87009 2.27984 2.78009C2.40984 2.56009 2.63983 2.43008 2.76983 2.21008C3.19983 1.90008 3.56982 1.49007 4.12982 1.38007C5.60982 0.760066 7.17983 0.800049 8.73983 0.800049C19.1698 0.800049 29.6098 0.800049 40.0398 0.800049C52.2298 0.800049 64.4198 0.790039 76.6198 0.790039C85.1098 0.790039 93.5998 0.800049 102.09 0.800049C104.78 0.800049 107.48 0.790049 110.17 0.800049C111.1 0.800049 112 0.960051 112.89 1.24005C114.09 1.75005 115 2.59005 115.7 3.68005C115.94 3.93005 115.99 4.25006 116.08 4.56006C116.24 4.70006 116.15 4.91007 116.23 5.07007C116.62 7.18007 116.46 9.30004 116.47 11.42C116.48 16.93 116.47 22.4301 116.46 27.9401C116.46 29.1101 116.5 30.2801 116.45 31.4401C116.4 32.5401 116.36 33.6401 115.93 34.6901C115.32 36.1401 114.28 37.14 112.83 37.73C112.75 37.76 112.68 37.8001 112.6 37.8401C112.38 37.7901 112.24 38.0301 112.03 38.0001C111.74 38.1001 111.44 38.1501 111.13 38.1301C105.66 38.2801 100.19 38.1601 94.7198 38.2001C94.1998 38.2001 93.6898 38.2001 93.1898 38.2101Z" fill="white"/>
<path d="M44.1598 21.9701C44.9398 21.9701 45.7098 21.9801 46.4898 21.9701C46.6998 21.9701 46.7898 22.0101 46.8198 22.2401C47.2398 25.5701 45.0198 27.9901 41.9798 28.1601C40.1598 28.2701 38.5998 27.7001 37.2898 26.4301C34.7798 23.9901 35.2198 19.7201 38.1798 17.8201C40.3898 16.4001 43.1498 16.4901 45.0298 18.0301C45.4698 18.3901 45.4698 18.3901 45.0698 18.7601C44.8398 18.9801 44.6398 19.3001 44.3698 19.3901C44.0598 19.4901 43.8598 19.0901 43.5898 18.9401C42.0198 18.1201 40.4698 18.1501 39.0398 19.2001C37.6198 20.2401 37.1298 21.7201 37.5098 23.4101C37.8798 25.0901 38.9798 26.1501 40.6698 26.4901C42.1798 26.8001 43.5198 26.4301 44.5598 25.2201C44.9198 24.8101 45.0598 24.3001 45.1698 23.7801C45.2298 23.5201 45.0498 23.5601 44.9098 23.5601C43.8998 23.5501 42.8898 23.5301 41.8798 23.5501C41.5498 23.5501 41.4098 23.4701 41.4398 23.1301C41.4598 22.8401 41.4498 22.5401 41.4498 22.2501C41.4398 22.0301 41.5298 21.9601 41.7598 21.9601C42.5598 21.9701 43.3598 21.9601 44.1598 21.9701Z" fill="#00213A"/>
<path d="M105.64 25.6601C106.06 24.6201 106.45 23.6601 106.84 22.6901C107.02 22.2301 107.21 21.7801 107.38 21.3201C107.47 21.0901 107.6 21.0002 107.85 21.0202C108.22 21.0402 108.59 21.0502 108.96 21.0202C109.3 21.0002 109.3 21.1201 109.18 21.3701C108.72 22.4001 108.26 23.4401 107.81 24.4701C106.88 26.5801 105.95 28.7001 105.03 30.8101C104.92 31.0601 104.79 31.1702 104.51 31.1502C104.19 31.1302 103.87 31.1302 103.55 31.1502C103.21 31.1702 103.19 31.0402 103.32 30.7702C103.76 29.8202 104.18 28.8701 104.63 27.9301C104.77 27.6501 104.76 27.4101 104.63 27.1301C103.8 25.3001 102.98 23.4601 102.16 21.6101C101.87 20.9401 101.83 21.0101 102.56 21.0101C102.6 21.0101 102.63 21.0101 102.67 21.0101C103.68 21.0101 103.67 21.0102 104.07 21.9602C104.55 23.1102 105.03 24.2502 105.51 25.3902C105.53 25.4702 105.56 25.5201 105.64 25.6601Z" fill="#00213A"/>
<path d="M73.45 22.56C73.45 24.15 73.46 25.73 73.45 27.32C73.44 28.07 73.54 27.94 72.79 27.96C72.57 27.97 72.35 27.94 72.13 27.96C71.87 27.98 71.79 27.89 71.79 27.63C71.8 26.52 71.79 25.42 71.79 24.31C71.79 22.07 71.8 19.8301 71.79 17.5901C71.79 17.2601 71.88 17.15 72.21 17.18C72.5 17.21 72.8 17.21 73.09 17.18C73.37 17.16 73.45 17.2701 73.45 17.5301C73.44 18.7101 73.45 19.89 73.45 21.07C73.44 21.58 73.44 22.07 73.45 22.56Z" fill="#00213A"/>
<path d="M94.5594 22.5102C94.5594 24.1802 94.5494 25.8502 94.5694 27.5302C94.5694 27.8402 94.4994 27.9802 94.1594 27.9502C93.8694 27.9202 93.5694 27.9202 93.2794 27.9502C92.9694 27.9802 92.9094 27.8402 92.9094 27.5702C92.9194 26.4502 92.9094 25.3302 92.9094 24.2102C92.9094 22.0302 92.8994 19.8602 92.8994 17.6802C92.8994 17.1802 92.8994 17.1802 93.3994 17.1802C93.6694 17.1802 93.9394 17.1902 94.2094 17.1802C94.4594 17.1602 94.5494 17.2402 94.5494 17.5102C94.5394 19.1802 94.5394 20.8502 94.5394 22.5302C94.5494 22.5102 94.5594 22.5102 94.5594 22.5102Z" fill="#00213A"/>
<path d="M70.7 22.05C70.7 21.05 70.7 21.05 69.7 21.06C69.16 21.06 69.16 21.06 69.09 21.59C68.42 21.1 68 20.91 67.47 20.87C65.99 20.75 64.66 21.53 63.96 22.9C63.33 24.15 63.52 25.79 64.41 26.85C65.48 28.11 67.13 28.53 68.45 27.86C68.67 27.75 68.8699 27.59 69.1199 27.43C69.1199 27.7 69.1299 27.92 69.1199 28.14C69.0499 29.07 68.52 29.75 67.73 29.92C66.79 30.13 65.96 29.79 65.46 28.95C65.33 28.72 65.22 28.69 65 28.8C64.76 28.92 64.51 29.04 64.25 29.11C63.87 29.22 63.9099 29.41 64.0699 29.68C64.7399 30.75 65.69 31.36 66.97 31.44C69.05 31.57 70.57 30.25 70.66 28.17C70.75 26.13 70.69 24.09 70.7 22.05ZM68.7 26.05C68.16 26.66 67.4699 26.83 66.6899 26.61C65.9199 26.39 65.33 25.63 65.27 24.85C65.26 24.74 65.27 24.63 65.27 24.52C65.25 23.2 66.24 22.23 67.48 22.33C67.94 22.37 68.33 22.58 68.64 22.91C69.42 23.75 69.45 25.21 68.7 26.05Z" fill="#00213A"/>
<path d="M88.4896 17.1701C87.3096 17.1601 86.1296 17.1801 84.9496 17.1701C84.6396 17.1701 84.5596 17.2701 84.5596 17.5701C84.5696 19.2301 84.5696 20.8901 84.5696 22.5501C84.5696 24.2401 84.5696 25.9201 84.5696 27.6101C84.5696 27.8601 84.6396 27.9702 84.8996 27.9502C85.2196 27.9302 85.5396 27.9302 85.8596 27.9502C86.1596 27.9702 86.2396 27.8601 86.2296 27.5701C86.2196 26.5101 86.2096 25.4502 86.2296 24.4002C86.2396 23.8202 86.1396 23.9001 86.7396 23.8801C87.5096 23.8601 88.2896 23.9401 89.0596 23.8201C91.0396 23.5101 92.4796 21.8402 91.9296 19.6502C91.5396 18.2002 90.1296 17.1901 88.4896 17.1701ZM88.6396 22.3302C87.9096 22.3702 87.1696 22.3401 86.4296 22.3501C86.2696 22.3501 86.2096 22.2801 86.2096 22.1301C86.2096 21.0701 86.2096 20.0202 86.1996 18.9602C86.1996 18.7502 86.2996 18.6902 86.4996 18.7002C86.8596 18.7102 87.2096 18.7002 87.5696 18.7002C87.8896 18.7002 88.2096 18.6902 88.5296 18.7002C89.5296 18.7302 90.3396 19.4902 90.3696 20.4502C90.4096 21.4302 89.6696 22.2702 88.6396 22.3302Z" fill="#00213A"/>
<path d="M101.81 23.5201C101.8 22.8801 101.57 22.2901 101.12 21.8201C100.15 20.8201 98.9497 20.6401 97.6497 20.9001C96.8397 21.0601 96.1697 21.4701 95.7397 22.2101C95.6297 22.4001 95.6497 22.4901 95.8597 22.5601C96.1797 22.6801 96.4897 22.8201 96.8097 22.9501C96.9397 23.0001 97.0497 23.0301 97.1697 22.9001C97.8897 22.1301 98.9797 22.0401 99.7697 22.6901C100.06 22.9301 100.24 23.2401 100.2 23.6701C100.07 23.6201 99.9797 23.5901 99.8897 23.5501C98.8197 23.1601 97.7597 23.2301 96.7497 23.7301C95.4897 24.3501 95.0497 25.7501 95.7297 26.9001C96.4497 28.1101 98.5297 28.5201 99.6497 27.6601C99.8297 27.5201 99.9897 27.3601 100.16 27.2001C100.24 27.3001 100.22 27.4001 100.21 27.4901C100.19 27.7801 100.29 27.9201 100.61 27.8901C100.88 27.8601 101.15 27.8701 101.42 27.8901C101.72 27.9101 101.82 27.8101 101.82 27.5001C101.81 26.1801 101.83 24.8501 101.81 23.5201ZM100.18 25.2401C99.9397 26.2701 98.6497 26.9501 97.6797 26.5401C97.3797 26.4101 97.1197 26.2301 97.0797 25.8601C97.0497 25.4701 97.1997 25.1701 97.5297 24.9601C97.8897 24.7301 98.3897 24.6201 98.9897 24.6501C99.3197 24.6401 99.6697 24.7501 100.01 24.8901C100.19 24.9801 100.22 25.0701 100.18 25.2401Z" fill="#00213A"/>
<path d="M51.1099 20.8601C48.9799 20.8701 47.3799 22.4301 47.3799 24.5001C47.3799 26.5901 49.0199 28.1901 51.1299 28.1801C53.2199 28.1701 54.8599 26.5501 54.8499 24.5001C54.8399 22.4401 53.2199 20.8601 51.1099 20.8601ZM51.1099 26.7101C49.9499 26.7001 49.0299 25.7301 49.0399 24.5201C49.0499 23.3001 49.9599 22.3401 51.1199 22.3401C52.2799 22.3401 53.1899 23.3002 53.1899 24.5302C53.1899 25.7302 52.2599 26.7101 51.1099 26.7101Z" fill="#00213A"/>
<path d="M59.2196 20.8501C57.1596 20.8401 55.3796 22.4801 55.4796 24.7201C55.5696 26.6301 57.1996 28.2002 59.2096 28.1802C61.3296 28.1602 62.9396 26.5702 62.9296 24.5202C62.9196 22.4202 61.3196 20.8601 59.2196 20.8501ZM59.1796 26.7002C58.0096 26.6902 57.1496 25.7502 57.1496 24.4902C57.1496 23.2502 58.0396 22.3302 59.2296 22.3302C60.3896 22.3302 61.2696 23.2801 61.2696 24.5401C61.2696 25.7501 60.3496 26.7102 59.1796 26.7002Z" fill="#00213A"/>
<path d="M77.6397 20.8501C77.1997 20.8201 76.7397 20.9301 76.2897 21.1301C75.1497 21.6201 74.0597 22.8201 74.1997 24.9301C74.2897 26.2501 75.2997 27.5401 76.6397 27.9801C78.1597 28.4801 79.8497 28.0001 80.7497 26.8401C80.9297 26.6101 80.9297 26.4701 80.6697 26.3201C80.4597 26.2001 80.2397 26.0701 80.0497 25.9201C79.8097 25.7301 79.6497 25.7301 79.4297 25.9901C78.5997 26.9801 76.9797 26.9201 76.2897 25.9001C76.1597 25.7101 76.1397 25.5901 76.3997 25.5001C76.8097 25.3501 77.2197 25.1601 77.6297 24.9901C78.6597 24.5701 79.6997 24.1501 80.7297 23.7201C80.8597 23.6701 81.0497 23.6501 80.9697 23.4001C80.5497 22.1201 79.4197 20.8101 77.6397 20.8501ZM78.7897 23.1601C77.9097 23.5001 77.0397 23.8801 76.1597 24.2301C76.0297 24.2801 75.8297 24.4001 75.8597 24.0901C75.8597 23.4401 76.3997 22.7101 77.0897 22.4201C77.7297 22.1601 78.4297 22.2801 78.8797 22.7001C79.0897 22.9201 79.0997 23.0401 78.7897 23.1601Z" fill="#00213A"/>
<path d="M9.02023 30.16C8.85023 29.97 8.74023 29.71 8.74023 29.42V9.57007C8.74023 9.28007 8.85023 9.02008 9.02023 8.83008L19.9602 19.5001L9.02023 30.16Z" fill="#33DEFD"/>
<path d="M23.5103 15.7801L10.3802 8.6C9.90025 8.34 9.35027 8.47004 9.03027 8.83004L19.9703 19.5L23.5103 15.7801Z" fill="#20F586"/>
<path d="M23.55 23.18L28.5099 20.46C29.2799 20.04 29.2799 18.94 28.5099 18.52L23.5 15.78L19.96 19.5L23.55 23.18Z" fill="#FDC819"/>
<path d="M23.5498 23.18L10.3698 30.39C9.88978 30.65 9.33977 30.52 9.00977 30.16L19.9498 19.5L23.5498 23.18Z" fill="#FD2142"/>
<path d="M35.9902 12.3702V8.69019H37.1202C37.4402 8.69019 37.7302 8.76016 37.9902 8.91016C38.2502 9.06016 38.4402 9.26021 38.5902 9.53021C38.7302 9.80021 38.8002 10.1002 38.8002 10.4502V10.6202C38.8002 10.9602 38.7302 11.2702 38.5902 11.5302C38.4502 11.8002 38.2502 12.0002 38.0002 12.1502C37.7402 12.3002 37.4602 12.3702 37.1302 12.3702H35.9902ZM36.7402 9.31018V11.7602H37.1102C37.4102 11.7602 37.6302 11.6602 37.7902 11.4702C37.9502 11.2802 38.0302 11.0002 38.0302 10.6402V10.4502C38.0302 10.0802 37.9502 9.79016 37.8002 9.60016C37.6502 9.41016 37.4202 9.31018 37.1202 9.31018H36.7402Z" fill="#00213A"/>
<path d="M40.3205 12.3702H39.5605V8.69019H40.3205V12.3702Z" fill="#00213A"/>
<path d="M43.0998 11.4102C43.0998 11.2702 43.0498 11.1602 42.9498 11.0802C42.8498 11.0002 42.6698 10.9202 42.3998 10.8402C42.1398 10.7602 41.9298 10.6702 41.7798 10.5902C41.3598 10.3602 41.1498 10.0602 41.1498 9.68018C41.1498 9.48018 41.2098 9.30021 41.3198 9.15021C41.4298 8.99021 41.5898 8.87016 41.7998 8.79016C42.0098 8.70016 42.2398 8.66016 42.5098 8.66016C42.7698 8.66016 43.0098 8.71017 43.2098 8.80017C43.4198 8.90017 43.5698 9.0302 43.6898 9.2002C43.7998 9.3702 43.8598 9.57016 43.8598 9.79016H43.0998C43.0998 9.62016 43.0498 9.49021 42.9398 9.40021C42.8298 9.31021 42.6798 9.26019 42.4898 9.26019C42.2998 9.26019 42.1598 9.30019 42.0598 9.38019C41.9598 9.46019 41.9098 9.56019 41.9098 9.69019C41.9098 9.81019 41.9698 9.91017 42.0898 9.99017C42.2098 10.0702 42.3898 10.1502 42.6198 10.2202C43.0498 10.3502 43.3598 10.5102 43.5598 10.7002C43.7598 10.8902 43.8598 11.1302 43.8598 11.4202C43.8598 11.7402 43.7398 11.9902 43.4998 12.1702C43.2598 12.3502 42.9398 12.4402 42.5298 12.4402C42.2498 12.4402 41.9898 12.3902 41.7598 12.2802C41.5298 12.1802 41.3498 12.0302 41.2298 11.8502C41.1098 11.6702 41.0498 11.4602 41.0498 11.2202H41.8098C41.8098 11.6302 42.0498 11.8302 42.5398 11.8302C42.7198 11.8302 42.8598 11.7902 42.9598 11.7202C43.0498 11.6402 43.0998 11.5402 43.0998 11.4102Z" fill="#00213A"/>
<path d="M45.3 11.0802V12.3802H44.54V8.7002H45.9701C46.2501 8.7002 46.49 8.75016 46.7 8.85016C46.91 8.95016 47.0701 9.09021 47.1801 9.28021C47.2901 9.47021 47.35 9.68017 47.35 9.92017C47.35 10.2802 47.23 10.5602 46.98 10.7702C46.73 10.9802 46.3901 11.0802 45.9601 11.0802H45.3ZM45.3 10.4702H45.98C46.18 10.4702 46.3301 10.4202 46.4401 10.3302C46.5501 10.2402 46.6 10.1002 46.6 9.93018C46.6 9.75018 46.5501 9.60017 46.4401 9.49017C46.3301 9.38017 46.1901 9.32019 46.0001 9.32019H45.3101V10.4702H45.3Z" fill="#00213A"/>
<path d="M51.0706 10.6201C51.0706 10.9801 51.0106 11.3001 50.8806 11.5701C50.7506 11.8401 50.5707 12.0501 50.3307 12.2001C50.0907 12.3501 49.8207 12.4201 49.5107 12.4201C49.2107 12.4201 48.9307 12.3501 48.6907 12.2001C48.4507 12.0501 48.2706 11.8401 48.1306 11.5701C48.0006 11.3001 47.9307 10.9901 47.9307 10.6301V10.4501C47.9307 10.0901 48.0006 9.77011 48.1306 9.49011C48.2606 9.21011 48.4407 9.00011 48.6807 8.86011C48.9207 8.71011 49.1907 8.64014 49.5007 8.64014C49.8107 8.64014 50.0806 8.71011 50.3206 8.86011C50.5606 9.01011 50.7407 9.22011 50.8707 9.49011C51.0007 9.77011 51.0706 10.0801 51.0706 10.4401V10.6201ZM50.3107 10.4501C50.3107 10.0601 50.2406 9.77013 50.1006 9.57013C49.9606 9.37013 49.7607 9.27014 49.5107 9.27014C49.2607 9.27014 49.0607 9.37013 48.9207 9.57013C48.7807 9.77013 48.7107 10.0601 48.7107 10.4401V10.6201C48.7107 11.0001 48.7807 11.2901 48.9207 11.4901C49.0607 11.7001 49.2607 11.8001 49.5207 11.8001C49.7707 11.8001 49.9707 11.7001 50.1107 11.5001C50.2507 11.3001 50.3206 11.0101 50.3206 10.6301V10.4501H50.3107Z" fill="#00213A"/>
<path d="M54.7801 12.3702H54.0201L52.55 9.9502V12.3702H51.79V8.69019H52.55L54.0301 11.1102V8.69019H54.79V12.3702H54.7801Z" fill="#00213A"/>
<path d="M56.4201 12.3702H55.6602V8.69019H56.4201V12.3702ZM56.1902 7.7002H56.9901L56.2901 8.48016H55.7001L56.1902 7.7002Z" fill="#00213A"/>
<path d="M58.6507 11.4602L59.4807 8.69019H60.3207L59.0407 12.3702H58.2507L56.9707 8.69019H57.8107L58.6507 11.4602Z" fill="#00213A"/>
<path d="M63.0604 10.7802H61.6104V11.7602H63.3203V12.3702H60.8604V8.69019H63.3203V9.30017H61.6204V10.1802H63.0703V10.7802H63.0604Z" fill="#00213A"/>
<path d="M64.6907 11.7702H66.3007V12.3802H63.9307V8.7002H64.6907V11.7702Z" fill="#00213A"/>
<path d="M71.3503 12.3702H70.5903L69.1203 9.9502V12.3702H68.3604V8.69019H69.1203L70.6003 11.1102V8.69019H71.3604V12.3702H71.3503Z" fill="#00213A"/>
<path d="M74.2601 11.6202H72.9301L72.6801 12.3802H71.8701L73.2401 8.7002H73.9401L75.3201 12.3802H74.5101L74.2601 11.6202ZM73.1301 11.0002H74.0502L73.5901 9.62018L73.1301 11.0002Z" fill="#00213A"/>
</svg>
