<svg width="34" height="15" viewBox="0 0 34 15" fill="none" xmlns="http://www.w3.org/2000/svg">
<path d="M21.6143 9.20312C21.6143 9.03711 21.5882 8.89062 21.5361 8.76367C21.4873 8.63346 21.3994 8.51628 21.2725 8.41211C21.1488 8.30794 20.9762 8.20866 20.7549 8.11426C20.5368 8.01986 20.2601 7.92383 19.9248 7.82617C19.5732 7.72201 19.2559 7.60645 18.9727 7.47949C18.6895 7.34928 18.4469 7.20117 18.2451 7.03516C18.0433 6.86914 17.8887 6.67871 17.7812 6.46387C17.6738 6.24902 17.6201 6.00326 17.6201 5.72656C17.6201 5.44987 17.6771 5.19434 17.791 4.95996C17.9049 4.72559 18.0677 4.52214 18.2793 4.34961C18.4941 4.17383 18.7497 4.03711 19.0459 3.93945C19.3421 3.8418 19.6725 3.79297 20.0371 3.79297C20.571 3.79297 21.0234 3.89551 21.3945 4.10059C21.7689 4.30241 22.0537 4.56771 22.249 4.89648C22.4443 5.22201 22.542 5.57031 22.542 5.94141H21.6045C21.6045 5.67448 21.5475 5.43848 21.4336 5.2334C21.3197 5.02507 21.1471 4.8623 20.916 4.74512C20.6849 4.62467 20.3919 4.56445 20.0371 4.56445C19.7018 4.56445 19.4251 4.61491 19.207 4.71582C18.9889 4.81673 18.8262 4.95345 18.7188 5.12598C18.6146 5.2985 18.5625 5.49544 18.5625 5.7168C18.5625 5.86654 18.5934 6.00326 18.6553 6.12695C18.7204 6.2474 18.8197 6.3597 18.9531 6.46387C19.0898 6.56803 19.2624 6.66406 19.4707 6.75195C19.6823 6.83984 19.9346 6.92448 20.2275 7.00586C20.6312 7.11979 20.9795 7.24674 21.2725 7.38672C21.5654 7.52669 21.8063 7.68457 21.9951 7.86035C22.1872 8.03288 22.3288 8.22982 22.4199 8.45117C22.5143 8.66927 22.5615 8.91667 22.5615 9.19336C22.5615 9.48307 22.5029 9.74512 22.3857 9.97949C22.2686 10.2139 22.1009 10.4141 21.8828 10.5801C21.6647 10.7461 21.4027 10.8747 21.0967 10.9658C20.7939 11.0537 20.4554 11.0977 20.0811 11.0977C19.7523 11.0977 19.4284 11.0521 19.1094 10.9609C18.7936 10.8698 18.5055 10.7331 18.2451 10.5508C17.988 10.3685 17.7812 10.1439 17.625 9.87695C17.472 9.60677 17.3955 9.29427 17.3955 8.93945H18.333C18.333 9.18359 18.3802 9.39355 18.4746 9.56934C18.569 9.74186 18.6976 9.88509 18.8604 9.99902C19.0264 10.113 19.2135 10.1976 19.4219 10.2529C19.6335 10.305 19.8532 10.3311 20.0811 10.3311C20.4098 10.3311 20.6882 10.2855 20.916 10.1943C21.1439 10.1032 21.3164 9.97298 21.4336 9.80371C21.554 9.63444 21.6143 9.43424 21.6143 9.20312ZM24.6074 5.7168V11H23.6992V5.7168H24.6074ZM23.6309 4.31543C23.6309 4.16895 23.6748 4.04525 23.7627 3.94434C23.8538 3.84342 23.9873 3.79297 24.1631 3.79297C24.3356 3.79297 24.4674 3.84342 24.5586 3.94434C24.653 4.04525 24.7002 4.16895 24.7002 4.31543C24.7002 4.4554 24.653 4.57585 24.5586 4.67676C24.4674 4.77441 24.3356 4.82324 24.1631 4.82324C23.9873 4.82324 23.8538 4.77441 23.7627 4.67676C23.6748 4.57585 23.6309 4.4554 23.6309 4.31543ZM28.2695 5.7168V6.41016H25.4131V5.7168H28.2695ZM26.3799 4.43262H27.2832V9.69141C27.2832 9.87044 27.3109 10.0055 27.3662 10.0967C27.4215 10.1878 27.4932 10.248 27.5811 10.2773C27.6689 10.3066 27.7633 10.3213 27.8643 10.3213C27.9391 10.3213 28.0173 10.3148 28.0986 10.3018C28.1833 10.2855 28.2467 10.2725 28.2891 10.2627L28.2939 11C28.2223 11.0228 28.1279 11.0439 28.0107 11.0635C27.8968 11.0863 27.7585 11.0977 27.5957 11.0977C27.3743 11.0977 27.1709 11.0537 26.9854 10.9658C26.7998 10.8779 26.6517 10.7314 26.541 10.5264C26.4336 10.318 26.3799 10.0381 26.3799 9.68652V4.43262ZM31.5215 11.0977C31.1536 11.0977 30.82 11.0358 30.5205 10.9121C30.2243 10.7852 29.9688 10.6077 29.7539 10.3799C29.5423 10.152 29.3796 9.88184 29.2656 9.56934C29.1517 9.25684 29.0947 8.91504 29.0947 8.54395V8.33887C29.0947 7.90918 29.1582 7.52669 29.2852 7.19141C29.4121 6.85286 29.5846 6.56641 29.8027 6.33203C30.0208 6.09766 30.2682 5.92025 30.5449 5.7998C30.8216 5.67936 31.1081 5.61914 31.4043 5.61914C31.7819 5.61914 32.1074 5.68424 32.3809 5.81445C32.6576 5.94466 32.8838 6.12695 33.0596 6.36133C33.2354 6.59245 33.3656 6.86589 33.4502 7.18164C33.5348 7.49414 33.5771 7.83594 33.5771 8.20703V8.6123H29.6318V7.875H32.6738V7.80664C32.6608 7.57227 32.612 7.3444 32.5273 7.12305C32.446 6.90169 32.3158 6.7194 32.1367 6.57617C31.9577 6.43294 31.7135 6.36133 31.4043 6.36133C31.1992 6.36133 31.0104 6.40527 30.8379 6.49316C30.6654 6.5778 30.5173 6.70475 30.3936 6.87402C30.2699 7.04329 30.1738 7.25 30.1055 7.49414C30.0371 7.73828 30.0029 8.01986 30.0029 8.33887V8.54395C30.0029 8.7946 30.0371 9.0306 30.1055 9.25195C30.1771 9.47005 30.2796 9.66211 30.4131 9.82812C30.5498 9.99414 30.7142 10.1243 30.9062 10.2188C31.1016 10.3132 31.3229 10.3604 31.5703 10.3604C31.8893 10.3604 32.1595 10.2952 32.3809 10.165C32.6022 10.0348 32.7959 9.86068 32.9619 9.64258L33.5088 10.0771C33.3949 10.2497 33.25 10.4141 33.0742 10.5703C32.8984 10.7266 32.682 10.8535 32.4248 10.9512C32.1709 11.0488 31.8698 11.0977 31.5215 11.0977Z" fill="#10394F"/>
<path d="M8.41 0.77002L5 14.82H5.44L8.84998 0.77002H8.41Z" fill="#FFA20E"/>
<path d="M3.43027 0.77002L0.0302734 14.82H0.470276L3.88025 0.77002H3.43027Z" fill="#FFA20E"/>
</svg>
