<svg width="45" height="45" viewBox="0 0 45 45" fill="none" xmlns="http://www.w3.org/2000/svg">
<path d="M22.5698 44.6099C34.8692 44.6099 44.8398 34.6392 44.8398 22.3398C44.8398 10.0405 34.8692 0.0698242 22.5698 0.0698242C10.2704 0.0698242 0.299805 10.0405 0.299805 22.3398C0.299805 34.6392 10.2704 44.6099 22.5698 44.6099Z" fill="#0391DF"/>
<path d="M22.5702 31.99C17.4002 31.99 13.2002 27.66 13.2002 22.34C13.2002 17.02 17.4002 12.6899 22.5702 12.6899C27.7402 12.6899 31.9402 17.02 31.9402 22.34C31.9402 27.66 27.7302 31.99 22.5702 31.99ZM22.5702 14C18.1302 14 14.5102 17.74 14.5102 22.34C14.5102 26.94 18.1302 30.6801 22.5702 30.6801C27.0102 30.6801 30.6302 26.94 30.6302 22.34C30.6302 17.74 27.0102 14 22.5702 14Z" fill="white"/>
<path d="M22.5303 31.99C19.7503 31.99 17.5703 27.75 17.5703 22.34C17.5703 16.93 19.7503 12.6899 22.5303 12.6899C25.3103 12.6899 27.4903 16.93 27.4903 22.34C27.4903 27.75 25.3103 31.99 22.5303 31.99ZM22.5303 14C20.3803 14 18.8803 18.4 18.8803 22.34C18.8803 26.29 20.3803 30.6801 22.5303 30.6801C24.6803 30.6801 26.1803 26.28 26.1803 22.34C26.1903 18.4 24.6903 14 22.5303 14Z" fill="white"/>
<path d="M30.4306 19.1199H14.7506C14.3906 19.1199 14.1006 18.8298 14.1006 18.4698C14.1006 18.1098 14.3906 17.8198 14.7506 17.8198H30.4306C30.7906 17.8198 31.0806 18.1098 31.0806 18.4698C31.0906 18.8298 30.7906 19.1199 30.4306 19.1199Z" fill="white"/>
<path d="M30.3005 27.09H14.9205C14.5605 27.09 14.2705 26.7999 14.2705 26.4399C14.2705 26.0799 14.5605 25.79 14.9205 25.79H30.3005C30.6605 25.79 30.9505 26.0799 30.9505 26.4399C30.9505 26.7999 30.6605 27.09 30.3005 27.09Z" fill="white"/>
<path d="M31.2607 23.1599H13.8707C13.5107 23.1599 13.2207 22.8699 13.2207 22.5099C13.2207 22.1499 13.5107 21.8599 13.8707 21.8599H31.2607C31.6207 21.8599 31.9107 22.1499 31.9107 22.5099C31.9207 22.8699 31.6207 23.1599 31.2607 23.1599Z" fill="white"/>
</svg>
