<svg width="46" height="45" viewBox="0 0 46 45" fill="none" xmlns="http://www.w3.org/2000/svg">
<path d="M23.2202 44.6099C35.5196 44.6099 45.4902 34.6392 45.4902 22.3398C45.4902 10.0405 35.5196 0.0698242 23.2202 0.0698242C10.9208 0.0698242 0.950195 10.0405 0.950195 22.3398C0.950195 34.6392 10.9208 44.6099 23.2202 44.6099Z" fill="#0391DF"/>
<path d="M32.1498 29.8599H14.2899C13.3499 29.8599 12.5898 29.0999 12.5898 28.1599V16.5199C12.5898 15.5799 13.3499 14.8198 14.2899 14.8198H32.1498C33.0898 14.8198 33.8499 15.5799 33.8499 16.5199V28.1599C33.8499 29.0999 33.0898 29.8599 32.1498 29.8599Z" fill="white"/>
<path d="M20.5195 24.8799V19.5299C20.5195 19.1399 20.9295 18.8898 21.2695 19.0798L26.3195 21.7599C26.6795 21.9499 26.6795 22.4799 26.3195 22.6699L21.2695 25.3498C20.9295 25.5198 20.5195 25.2699 20.5195 24.8799Z" fill="#0391DF"/>
</svg>
